<svg xmlns="http://www.w3.org/2000/svg" xmlns:xlink="http://www.w3.org/1999/xlink" width="264.991" height="232.405" viewBox="0 0 264.991 232.405">
  <defs>
    <linearGradient id="linear-gradient" x1="0.124" y1="0.755" x2="0.906" y2="0.27" gradientUnits="objectBoundingBox">
      <stop offset="0" stop-color="#dcfdee" stop-opacity="0"/>
      <stop offset="0.629" stop-color="#d2f3e4"/>
    </linearGradient>
    <radialGradient id="radial-gradient" cx="-0.863" cy="-0.497" r="8.231" gradientTransform="translate(0.264) scale(0.471 1)" gradientUnits="objectBoundingBox">
      <stop offset="0" stop-color="#ef5050"/>
      <stop offset="0.546" stop-color="#e8406c"/>
      <stop offset="1" stop-color="#fffc9f"/>
    </radialGradient>
    <radialGradient id="radial-gradient-2" cx="0.679" cy="-0.963" r="4.853" gradientTransform="translate(-0.356) scale(1.711 1)" gradientUnits="objectBoundingBox">
      <stop offset="0" stop-color="#ef5050"/>
      <stop offset="0.546" stop-color="#e7386f"/>
      <stop offset="1" stop-color="#fffc9f"/>
    </radialGradient>
    <radialGradient id="radial-gradient-3" cx="2.19" cy="1.196" r="3.483" gradientTransform="translate(-0.098) scale(1.196 1)" gradientUnits="objectBoundingBox">
      <stop offset="0" stop-color="#ef5050"/>
      <stop offset="0.546" stop-color="#ea5067"/>
      <stop offset="1" stop-color="#fffc9f"/>
    </radialGradient>
    <linearGradient id="linear-gradient-2" y1="0.5" x2="1" y2="0.5" gradientUnits="objectBoundingBox">
      <stop offset="0" stop-color="#3ea8ff"/>
      <stop offset="0.942" stop-color="#5e4aed"/>
    </linearGradient>
  </defs>
  <g id="Group_3828" data-name="Group 3828" transform="translate(-71.009 -47.046)">
    <g id="Group_3826" data-name="Group 3826">
      <g id="smartphone_1_" data-name="smartphone (1)" transform="translate(86 47.046)">
        <g id="Group_1681" data-name="Group 1681">
          <path id="Path_11" data-name="Path 11" d="M9.93,71.233C-1.772,90.471-3.006,123.779,5.567,144.6c7.508,18.238,22.444,35.356,42.051,37.5,7.21.789,14.579-.5,21.715.8,24.54,4.469,33.668,34.712,52.739,50.788,13.272,11.188,31.688,15.147,48.913,12.992s33.351-9.943,47.547-19.934c11.21-7.889,21.7-17.589,27.228-30.13,11.594-26.288-2.046-57.862-23.236-77.265-6.6-6.043-13.956-11.374-19.47-18.421s-9.023-16.453-6.4-25.007c2.1-6.825,7.739-12.115,9.876-18.927,2.909-9.27-1.482-19.668-8.692-26.18s-16.752-9.785-26.2-12.031C132.037,9.371,45.259,13.158,9.93,71.233Z" transform="translate(0 -14.84)" fill="url(#linear-gradient)"/>
        </g>
      </g>
      <g id="Group_3797" data-name="Group 3797" transform="translate(-360.387 -338.09)">
        <g id="Group_3788" data-name="Group 3788" transform="translate(486.666 397.523)">
          <g id="Group_3786" data-name="Group 3786" transform="translate(0 94.595)">
            <path id="Path_13606" data-name="Path 13606" d="M1195.425,1450.659c-3.387,11.461-5.322,20.671-7.323,20.92-3.31.413-5.712-9.606-5.775-25.1C1182.327,1446.475,1186.305,1452.333,1195.425,1450.659Z" transform="translate(-1160.968 -1373.2)" fill="#fff"/>
            <path id="Path_13607" data-name="Path 13607" d="M1231.7,1078.828q-.746.254-1.51.495-1.087.341-2.21.658c-.642.185-1.293.36-1.954.531-14.234,3.691-22.475,20.005-27.789,35.39-1.047,3.027-1.98,6.023-2.824,8.875-9.121,1.676-13.1-4.182-13.1-4.182-.011-2.631.047-5.417.177-8.339.27-6.031.859-12.63,1.824-19.588,2.284-16.429,17.108-30.5,30.147-39.908,1.475-1.065,2.927-2.07,4.333-3.011,1.293-.865,2.549-1.674,3.749-2.43h0S1234.121,1065.1,1231.7,1078.828Z" transform="translate(-1160.96 -1047.319)" fill="#e99f9b"/>
            <path id="Path_13608" data-name="Path 13608" d="M1393.957,1078.828q-.746.254-1.51.495-1.087.341-2.21.658c.605-15.268-9.184-30.232-9.184-30.232,1.293-.865,2.549-1.674,3.749-2.43h0S1396.374,1065.1,1393.957,1078.828Z" transform="translate(-1323.213 -1047.319)" fill="#e28d90"/>
            <g id="Group_3785" data-name="Group 3785" transform="translate(0 87.738)">
              <path id="Path_13609" data-name="Path 13609" d="M1088.046,1528.083s1.97-5.019,4.331-1.673,5.149,6.116,7.1,3.346,4.182-.231,4.182,3.091,1.115,7.225-1.673,7.5-31.505,3.067-31.784-3.9S1080.8,1540.351,1088.046,1528.083Z" transform="translate(-1069.423 -1525.26)" fill="url(#radial-gradient)"/>
              <path id="Path_13610" data-name="Path 13610" d="M1100.435,1588.511s4.96,4.74,0,6.134-12.348-1.533-15.973-.976-18.541.557-18.4-5.158c0,0-.7-2.23,1.952-.976S1073.193,1590.463,1100.435,1588.511Z" transform="translate(-1065.978 -1575.791)" fill="#fff"/>
            </g>
          </g>
          <path id="Path_13611" data-name="Path 13611" d="M1981.1,1288.739c0,1.774-9.291,5.4-22.457,7.888,1.931-3.685,2.1-8.512,1.876-12.024C1972.62,1285.166,1981.1,1285.395,1981.1,1288.739Z" transform="translate(-1794.775 -1146.448)" fill="#fff"/>
          <path id="Path_13612" data-name="Path 13612" d="M1607.063,1190.1c-1.763.333-3.6.648-5.486.933-20.251,3.061-46.991,2.964-64.213-9.116v0a39.984,39.984,0,0,1-6.631-5.8,37.823,37.823,0,0,1-2.726-3.355c2.715-3.463,12.9-15.487,25.793-18.636q.547,1.067,1.145,2.12c.729,1.3,1.515,2.572,2.358,3.815,4.708,6.961,11.215,12.852,20.1,14.678a174.8,174.8,0,0,0,24.566,2.977c2.427.148,4.759.262,6.974.362C1609.162,1181.589,1608.993,1186.414,1607.063,1190.1Z" transform="translate(-1443.191 -1039.921)" fill="#e28d90"/>
          <path id="Path_13613" data-name="Path 13613" d="M1554.946,1156.242s-17.6,14.618-17.581,25.671a39.984,39.984,0,0,1-6.631-5.8,37.823,37.823,0,0,1-2.726-3.355c2.715-3.463,12.9-15.487,25.793-18.636Q1554.348,1155.189,1554.946,1156.242Z" transform="translate(-1443.191 -1039.921)" fill="#c47076"/>
          <g id="Group_3787" data-name="Group 3787" transform="translate(174.932 129.174)">
            <path id="Path_13614" data-name="Path 13614" d="M2022.45,1270.4s-5.154-.294-2.815-3.441,4.027-6.511.923-7.459-1.459-3.736,1.563-4.728,6.24-3.172,7.327-.719,12.2,27.748,5.941,30.083S2035.776,1273.329,2022.45,1270.4Z" transform="translate(-2018.892 -1249.761)" fill="url(#radial-gradient-2)"/>
            <path id="Path_13615" data-name="Path 13615" d="M2061.569,1238.961s2.831-5.928,5.581-1.832,2.293,11.693,3.882,14.824,6.044,16.7.8,18.282c0,0-1.821,1.3-1.47-1.484S2071.48,1263.164,2061.569,1238.961Z" transform="translate(-2053.735 -1235.687)" fill="#fff"/>
          </g>
          <path id="Path_13616" data-name="Path 13616" d="M1100.369,571.637s2.8,2.633,3.135,5.373l2.76-2.58.519-1.721s-.742-4.327-2.547-5.144-2.747,2.3-2.747,2.3Z" transform="translate(-1094.056 -560.93)" fill="#e28d90"/>
          <path id="Path_13617" data-name="Path 13617" d="M1101.945,566.139s-1.229-4.883-3.027-4.383-4.2,2.973-3.8,4.383,3.846,1.354,4.795-.191l.949-1.545Z" transform="translate(-1089.736 -556.269)" fill="#e99f9b"/>
          <path id="Path_13618" data-name="Path 13618" d="M1508.486,1031.1c-14.468,3.535-25.9,17.029-28.949,20.917-4.375-6.064-7.364-13.616-8.434-22.952l28.4-25.77A98.65,98.65,0,0,0,1508.486,1031.1Z" transform="translate(-1396.732 -916.78)" fill="#252551"/>
          <path id="Path_13619" data-name="Path 13619" d="M1401.344,1012.511c2.6-14.756-9.836-33.866-9.836-33.866a147.223,147.223,0,0,1,13.427-7.578c5.632-12.616,28.863-4.925,28.863-4.925C1438.191,985.808,1443.5,998.87,1401.344,1012.511Z" transform="translate(-1331.749 -884.554)" fill="#312867"/>
          <path id="Path_13620" data-name="Path 13620" d="M1414.2,678.537c-4.005,9.844,3.77,42.519,3.77,42.519-6.714-3.555-31.216,4.375-31.216,4.375-5.772-10.937-9.065-40.222-9.065-40.222l-4.762,2.036c.371-8.31-2.562-17.444-2.562-17.444a84.574,84.574,0,0,1,21.139-4.948l8.378-1.484s11.515-.558,22.736-.381a22.886,22.886,0,0,0-1.8,16.621C1416.932,679.076,1414.2,678.537,1414.2,678.537Z" transform="translate(-1314.488 -638.919)" fill="url(#radial-gradient-3)"/>
          <path id="Path_13621" data-name="Path 13621" d="M1167.142,645.4c-.251.108-.51.217-.769.328-1.6.672-3.344,1.364-5.171,2.028h0c-5.483,1.991-11.707,3.725-16.981,3.839-12.724.275-25.909-37.2-25.909-37.2l3.656-2.7c19.7,12.812,20.368,28.273,20.368,28.273a84.392,84.392,0,0,1,22.247-12.016.008.008,0,0,0,0,.005C1164.665,628.221,1167.507,637.21,1167.142,645.4Z" transform="translate(-1108.702 -597.072)" fill="#e99f9b"/>
          <path id="Path_13622" data-name="Path 13622" d="M1683.869,703.365l-3.6.9c-19.1-11.91-19.144-23.934-19.144-23.934-5.523.938-13.317.267-18.977-.479-.227-.029-.452-.061-.671-.09a22.888,22.888,0,0,1,1.8-16.622c1.113.019,2.226.042,3.321.077,7.612.23,14.53.872,16.888,2.348C1669.611,669.393,1683.869,703.365,1683.869,703.365Z" transform="translate(-1535.146 -639.071)" fill="#e99f9b"/>
          <path id="Path_13623" data-name="Path 13623" d="M1472.9,607.777c-.272,2.631-9.843,6.356-10.253,1.972a88.173,88.173,0,0,1-.137-8.867c.053-2.319.137-4.064.137-4.064l5.6-5.457S1473.176,605.147,1472.9,607.777Z" transform="translate(-1389.68 -580.47)" fill="#e99f9b"/>
          <path id="Path_13624" data-name="Path 13624" d="M1116.221,589.7s1.064-5.094-2.083-4.944-3.746,1.648-1.573,1.648h2.173s-3.081,3.549-2.173,5.993Z" transform="translate(-1102.959 -575.072)" fill="#e99f9b"/>
          <path id="Path_13625" data-name="Path 13625" d="M1854.762,883.164s-.9,4.17,0,4.57,2.2-1.1,3,0,3.1,1.738,3.3.07,1.7.145,1.3-1.81-4-3.728-4-3.728Z" transform="translate(-1709.634 -817.97)" fill="#e99f9b"/>
          <path id="Path_13626" data-name="Path 13626" d="M1357.9,717.7c-.251.108-.51.217-.769.328-1.6.672-3.344,1.364-5.171,2.028l.005-.005c4.561-3.551,3.374-19.794,3.374-19.794a.008.008,0,0,0,0,.005C1355.425,700.52,1358.267,709.509,1357.9,717.7Z" transform="translate(-1299.463 -669.371)" fill="#e28d90"/>
          <path id="Path_13627" data-name="Path 13627" d="M1646.6,663.217c-4.3,1.864-4.444,16.635-4.444,16.635-.227-.029-.452-.061-.671-.09a22.888,22.888,0,0,1,1.8-16.622C1644.389,663.159,1645.5,663.182,1646.6,663.217Z" transform="translate(-1535.146 -639.071)" fill="#e28d90"/>
          <path id="Path_13628" data-name="Path 13628" d="M1466.331,635.1l-3.683,10.358a88.172,88.172,0,0,1-.137-8.867Z" transform="translate(-1389.68 -616.179)" fill="#e28d90"/>
          <path id="Path_13629" data-name="Path 13629" d="M1433.5,552.149s-.408,6.2.9,9.956,7.589,3.264,9.548-4.978-1.142-13.22-5.223-13.22S1433.5,548.314,1433.5,552.149Z" transform="translate(-1365.983 -541.727)" fill="#e99f9b"/>
          <path id="Path_13630" data-name="Path 13630" d="M1423.367,542.922a1.342,1.342,0,0,1,1.424-.969c1.161.074,1.041,2.863,1.041,2.863l1.985,2.906s.419-7.267-.48-10.263-3.14-4.693-5.169-3.971c0,0-.524-1.723-3.146-1.423s-5.394,3.97-7.491,3.446-.3,4.27,5.094,2.772,5.019-.3,5.319.749a46.1,46.1,0,0,1,.6,4.87h.9Z" transform="translate(-1347.399 -532.029)" fill="url(#linear-gradient-2)"/>
        </g>
        <g id="Group_3790" data-name="Group 3790" transform="translate(432.81 545.316)" opacity="0.64">
          <circle id="Ellipse_759" data-name="Ellipse 759" cx="16.598" cy="16.598" r="16.598" transform="translate(0 23.473) rotate(-45)" fill="none" stroke="#fff" stroke-miterlimit="10" stroke-width="2"/>
          <g id="Group_3789" data-name="Group 3789" transform="translate(14.501 14.046)">
            <path id="Path_13631" data-name="Path 13631" d="M861.661,1268.146h-2.183a.975.975,0,0,1-.974-.974v-5.932h-5.932a.975.975,0,0,1-.974-.974v-2.183a.975.975,0,0,1,.974-.974H858.5v-5.932a.975.975,0,0,1,.974-.974h2.183a.975.975,0,0,1,.974.974v5.932h5.932a.975.975,0,0,1,.974.974v2.183a.975.975,0,0,1-.974.974h-5.932v5.932A.975.975,0,0,1,861.661,1268.146Zm-9.089-10.55a.488.488,0,0,0-.487.487v2.183a.488.488,0,0,0,.487.487h6.419v6.419a.488.488,0,0,0,.487.487h2.183a.488.488,0,0,0,.487-.487v-6.419h6.419a.488.488,0,0,0,.487-.487v-2.183a.488.488,0,0,0-.487-.487h-6.419v-6.419a.488.488,0,0,0-.487-.487h-2.183a.488.488,0,0,0-.487.487v6.419Z" transform="translate(-851.598 -1250.202)" fill="#fff"/>
          </g>
        </g>
      </g>
    </g>
    <path id="Path_13637" data-name="Path 13637" d="M66.606,393.474a6.979,6.979,0,1,1,6.979-6.978A6.986,6.986,0,0,1,66.606,393.474Zm0-9.074a2.1,2.1,0,1,0,2.1,2.1A2.1,2.1,0,0,0,66.606,384.4Z" transform="translate(33.488 -144.406)" fill="#ef5050"/>
    <path id="Path_13638" data-name="Path 13638" d="M431.6,158.588a2.441,2.441,0,0,1-2.441-2.441,2.933,2.933,0,0,0-2.93-2.93,2.441,2.441,0,0,1,0-4.883,2.933,2.933,0,0,0,2.93-2.93,2.441,2.441,0,1,1,4.883,0,2.933,2.933,0,0,0,2.93,2.93,2.441,2.441,0,0,1,0,4.883,2.933,2.933,0,0,0-2.93,2.93A2.441,2.441,0,0,1,431.6,158.588Z" transform="translate(-112.861 -43.357)" fill="#01eca5"/>
    <path id="Path_13639" data-name="Path 13639" d="M417.6,205.3a2.441,2.441,0,0,1-2.441-2.441,2.933,2.933,0,0,0-2.93-2.93,2.441,2.441,0,0,1,0-4.883,2.933,2.933,0,0,0,2.93-2.93,2.441,2.441,0,0,1,4.883,0,2.933,2.933,0,0,0,2.93,2.93,2.441,2.441,0,1,1,0,4.883,2.933,2.933,0,0,0-2.93,2.93A2.441,2.441,0,0,1,417.6,205.3Z" transform="translate(-105.697 -67.263)" fill="#6583fe"/>
    <path id="Path_13640" data-name="Path 13640" d="M50.439,311.182A2.442,2.442,0,0,1,48,308.74a2.933,2.933,0,0,0-2.93-2.93,2.441,2.441,0,0,1,0-4.883A2.933,2.933,0,0,0,48,298a2.441,2.441,0,1,1,4.883,0,2.933,2.933,0,0,0,2.93,2.93,2.441,2.441,0,0,1,0,4.883,2.933,2.933,0,0,0-2.93,2.93A2.441,2.441,0,0,1,50.439,311.182Z" transform="translate(42.188 -101.442)" fill="#01eca5"/>
    <path id="Path_13641" data-name="Path 13641" d="M80.335,340.831a2.442,2.442,0,0,1-2.441-2.441,2.933,2.933,0,0,0-2.93-2.93,2.441,2.441,0,0,1,0-4.883,2.933,2.933,0,0,0,2.93-2.93,2.441,2.441,0,1,1,4.883,0,2.933,2.933,0,0,0,2.93,2.93,2.441,2.441,0,1,1,0,4.883,2.933,2.933,0,0,0-2.93,2.93A2.442,2.442,0,0,1,80.335,340.831Z" transform="translate(26.889 -116.614)" fill="#6583fe"/>
  </g>
</svg>
