<svg xmlns="http://www.w3.org/2000/svg" xmlns:xlink="http://www.w3.org/1999/xlink" width="251.186" height="232.405" viewBox="0 0 251.186 232.405">
  <defs>
    <linearGradient id="linear-gradient" x1="0.124" y1="0.755" x2="0.906" y2="0.27" gradientUnits="objectBoundingBox">
      <stop offset="0" stop-color="#dcfdee" stop-opacity="0"/>
      <stop offset="0.629" stop-color="#d2f3e4"/>
    </linearGradient>
  </defs>
  <g id="Group_3890" data-name="Group 3890" transform="translate(-84.814 -47.046)">
    <g id="smartphone_1_" data-name="smartphone (1)" transform="translate(86 47.046)">
      <g id="Group_1681" data-name="Group 1681">
        <path id="Path_11" data-name="Path 11" d="M9.93,71.233C-1.772,90.471-3.006,123.779,5.567,144.6c7.508,18.238,22.444,35.356,42.051,37.5,7.21.789,14.579-.5,21.715.8,24.54,4.469,33.668,34.712,52.739,50.788,13.272,11.188,31.688,15.147,48.913,12.992s33.351-9.943,47.547-19.934c11.21-7.889,21.7-17.589,27.228-30.13,11.594-26.288-2.046-57.862-23.236-77.265-6.6-6.043-13.956-11.374-19.47-18.421s-9.023-16.453-6.4-25.007c2.1-6.825,7.739-12.115,9.876-18.927,2.909-9.27-1.482-19.668-8.692-26.18s-16.752-9.785-26.2-12.031C132.037,9.371,45.259,13.158,9.93,71.233Z" transform="translate(0 -14.84)" fill="url(#linear-gradient)"/>
      </g>
    </g>
    <path id="Path_13637" data-name="Path 13637" d="M66.606,393.474a6.979,6.979,0,1,1,6.979-6.978A6.986,6.986,0,0,1,66.606,393.474Zm0-9.074a2.1,2.1,0,1,0,2.1,2.1A2.1,2.1,0,0,0,66.606,384.4Z" transform="translate(33.488 -144.406)" fill="#ef5050"/>
    <path id="Path_13638" data-name="Path 13638" d="M431.6,158.588a2.441,2.441,0,0,1-2.441-2.441,2.933,2.933,0,0,0-2.93-2.93,2.441,2.441,0,0,1,0-4.883,2.933,2.933,0,0,0,2.93-2.93,2.441,2.441,0,1,1,4.883,0,2.933,2.933,0,0,0,2.93,2.93,2.441,2.441,0,0,1,0,4.883,2.933,2.933,0,0,0-2.93,2.93A2.441,2.441,0,0,1,431.6,158.588Z" transform="translate(-112.861 -43.357)" fill="#01eca5"/>
    <path id="Path_13639" data-name="Path 13639" d="M417.6,205.3a2.441,2.441,0,0,1-2.441-2.441,2.933,2.933,0,0,0-2.93-2.93,2.441,2.441,0,0,1,0-4.883,2.933,2.933,0,0,0,2.93-2.93,2.441,2.441,0,0,1,4.883,0,2.933,2.933,0,0,0,2.93,2.93,2.441,2.441,0,1,1,0,4.883,2.933,2.933,0,0,0-2.93,2.93A2.441,2.441,0,0,1,417.6,205.3Z" transform="translate(-105.697 -67.263)" fill="#6583fe"/>
    <path id="Path_13640" data-name="Path 13640" d="M50.439,311.182A2.442,2.442,0,0,1,48,308.74a2.933,2.933,0,0,0-2.93-2.93,2.441,2.441,0,0,1,0-4.883A2.933,2.933,0,0,0,48,298a2.441,2.441,0,1,1,4.883,0,2.933,2.933,0,0,0,2.93,2.93,2.441,2.441,0,0,1,0,4.883,2.933,2.933,0,0,0-2.93,2.93A2.441,2.441,0,0,1,50.439,311.182Z" transform="translate(42.188 -101.442)" fill="#01eca5"/>
    <path id="Path_13641" data-name="Path 13641" d="M80.335,340.831a2.442,2.442,0,0,1-2.441-2.441,2.933,2.933,0,0,0-2.93-2.93,2.441,2.441,0,0,1,0-4.883,2.933,2.933,0,0,0,2.93-2.93,2.441,2.441,0,1,1,4.883,0,2.933,2.933,0,0,0,2.93,2.93,2.441,2.441,0,1,1,0,4.883,2.933,2.933,0,0,0-2.93,2.93A2.442,2.442,0,0,1,80.335,340.831Z" transform="translate(26.889 -116.614)" fill="#6583fe"/>
    <g id="siren" transform="translate(96.662 82.947)">
      <path id="Path_13689" data-name="Path 13689" d="M169.185,450.278H69.9a2.355,2.355,0,0,1-2.355-2.355v-17.1a4.065,4.065,0,0,1,4.065-4.065h95.865a4.065,4.065,0,0,1,4.065,4.065v17.1A2.355,2.355,0,0,1,169.185,450.278Z" transform="translate(-2.206 -309.009)" fill="#005d8d"/>
      <path id="Path_13690" data-name="Path 13690" d="M413.5,426.757h-6.18a4.065,4.065,0,0,1,4.065,4.065v19.455h3.825a2.355,2.355,0,0,0,2.356-2.355v-17.1a4.065,4.065,0,0,0-4.065-4.065Z" transform="translate(-248.233 -309.008)" fill="#365e7d"/>
      <path id="Path_13691" data-name="Path 13691" d="M181.227,367.354H102.055a3.991,3.991,0,0,0-3.991,3.991v12.4h87.154v-12.4A3.991,3.991,0,0,0,181.227,367.354Z" transform="translate(-24.304 -265.995)" fill="#bed8fb"/>
      <path id="Path_13692" data-name="Path 13692" d="M391.029,367.354v16.391h6.32v-12.4a3.991,3.991,0,0,0-3.991-3.991Z" transform="translate(-236.435 -265.995)" fill="#9dc6fb"/>
      <path id="Path_13693" data-name="Path 13693" d="M197.777,168.812H126.085l6.686-63.1a14.031,14.031,0,0,1,13.953-12.553h30.413A14.031,14.031,0,0,1,191.09,105.71Z" transform="translate(-44.594 -67.453)" fill="#ef5050"/>
      <path id="Path_13694" data-name="Path 13694" d="M307.232,105.709a14.031,14.031,0,0,0-13.953-12.553h-6.8a14.031,14.031,0,0,1,13.953,12.553l6.686,63.1h6.8Z" transform="translate(-160.735 -67.453)" fill="#da4a54"/>
      <path id="Path_13695" data-name="Path 13695" d="M234.537,298H208.109V284.786a13.214,13.214,0,1,1,26.428,0V298Z" transform="translate(-103.986 -196.641)" fill="#da4a54"/>
      <path id="Path_13696" data-name="Path 13696" d="M246.772,271.571a13.225,13.225,0,0,0-3.517.477,13.217,13.217,0,0,1,9.7,12.737V298h7.033V284.785a13.214,13.214,0,0,0-13.214-13.214Z" transform="translate(-129.434 -196.64)" fill="#d82e3d"/>
      <g id="Group_3883" data-name="Group 3883" transform="translate(102.813 128.367)">
        <path id="Path_13697" data-name="Path 13697" d="M230.31,469.441H205.462a2.1,2.1,0,0,1,0-4.2H230.31a2.1,2.1,0,1,1,0,4.2Z" transform="translate(-203.362 -465.241)" fill="#365e7d"/>
      </g>
      <g id="Group_3889" data-name="Group 3889" transform="translate(64.499)">
        <g id="Group_3884" data-name="Group 3884" transform="translate(50.738)">
          <path id="Path_13698" data-name="Path 13698" d="M250.488,18.234a2.1,2.1,0,0,1-2.1-2.1V2.1a2.1,2.1,0,0,1,4.2,0V16.133A2.1,2.1,0,0,1,250.488,18.234Z" transform="translate(-248.388)" fill="#ef5050"/>
        </g>
        <g id="Group_3885" data-name="Group 3885" transform="translate(18.045 3.544)">
          <path id="Path_13699" data-name="Path 13699" d="M139.847,28.681a2.1,2.1,0,0,1-1.743-.926L130.257,16.12a2.1,2.1,0,1,1,3.482-2.348l7.847,11.635a2.1,2.1,0,0,1-1.739,3.275Z" transform="translate(-129.898 -12.846)" fill="#ef5050"/>
        </g>
        <g id="Group_3886" data-name="Group 3886" transform="translate(0 23.125)">
          <path id="Path_13700" data-name="Path 13700" d="M79.239,94.11a2.1,2.1,0,0,1-.911-.209L65.687,87.806a2.1,2.1,0,0,1,1.825-3.784l12.641,6.095a2.1,2.1,0,0,1-.914,3.993Z" transform="translate(-64.499 -83.813)" fill="#ef5050"/>
        </g>
        <g id="Group_3887" data-name="Group 3887" transform="translate(75.584 3.544)">
          <path id="Path_13701" data-name="Path 13701" d="M340.537,28.68a2.1,2.1,0,0,1-1.739-3.275l7.847-11.635a2.1,2.1,0,0,1,3.482,2.348L342.28,27.754A2.1,2.1,0,0,1,340.537,28.68Z" transform="translate(-338.438 -12.845)" fill="#ef5050"/>
        </g>
        <g id="Group_3888" data-name="Group 3888" transform="translate(88.835 23.126)">
          <path id="Path_13702" data-name="Path 13702" d="M388.563,94.11a2.1,2.1,0,0,1-.914-3.993l12.641-6.095a2.1,2.1,0,0,1,1.825,3.784L389.474,93.9a2.1,2.1,0,0,1-.911.209Z" transform="translate(-386.461 -83.814)" fill="#ef5050"/>
        </g>
      </g>
    </g>
  </g>
</svg>
