<svg xmlns="http://www.w3.org/2000/svg" width="59" height="59" viewBox="0 0 59 59">
  <g id="linked_in" data-name="linked in" transform="translate(0 0.001)">
    <g id="linkedin-logo_1_" data-name="linkedin-logo (1)" transform="translate(16.84 15.702)">
      <path id="LinkedIn" d="M26.238,25.864v10.29H20.614v-9.6c0-2.412-.813-4.058-2.849-4.058a3.1,3.1,0,0,0-2.885,2.182,4.312,4.312,0,0,0-.187,1.454V36.153H9.068s.076-16.26,0-17.945h5.625v2.544c-.011.019-.026.04-.037.058h.037v-.058a5.545,5.545,0,0,1,5.069-2.965C23.464,17.787,26.238,20.352,26.238,25.864ZM3.183,9.558A3.014,3.014,0,0,0,0,12.658a3,3,0,0,0,3.109,3.1h.038a3.015,3.015,0,0,0,3.182-3.1A3,3,0,0,0,3.183,9.558ZM.334,36.153H5.958V18.208H.334Z" transform="translate(0 -9.558)" fill="#5e5e63"/>
    </g>
    <g id="Ellipse_17" data-name="Ellipse 17" transform="translate(0 -0.001)" fill="none" stroke="#6f6f75" stroke-width="1">
      <circle cx="29.5" cy="29.5" r="29.5" stroke="none"/>
      <circle cx="29.5" cy="29.5" r="29" fill="none"/>
    </g>
  </g>
</svg>
