<svg xmlns="http://www.w3.org/2000/svg" xmlns:xlink="http://www.w3.org/1999/xlink" width="250" height="232.405" viewBox="0 0 250 232.405">
  <defs>
    <linearGradient id="linear-gradient" x1="0.124" y1="0.755" x2="0.906" y2="0.27" gradientUnits="objectBoundingBox">
      <stop offset="0" stop-color="#dcfdee" stop-opacity="0"/>
      <stop offset="0.629" stop-color="#d2f3e4"/>
    </linearGradient>
  </defs>
  <g id="smartphone_1_" data-name="smartphone (1)" transform="translate(6)">
    <g id="Group_1681" data-name="Group 1681" transform="translate(-6)">
      <path id="Path_11" data-name="Path 11" d="M9.93,71.233C-1.772,90.471-3.006,123.779,5.567,144.6c7.508,18.238,22.444,35.356,42.051,37.5,7.21.789,14.579-.5,21.715.8,24.54,4.469,33.668,34.712,52.739,50.788,13.272,11.188,31.688,15.147,48.913,12.992s33.351-9.943,47.547-19.934c11.21-7.889,21.7-17.589,27.228-30.13,11.594-26.288-2.046-57.862-23.236-77.265-6.6-6.043-13.956-11.374-19.47-18.421s-9.023-16.453-6.4-25.007c2.1-6.825,7.739-12.115,9.876-18.927,2.909-9.27-1.482-19.668-8.692-26.18s-16.752-9.785-26.2-12.031C132.037,9.371,45.259,13.158,9.93,71.233Z" transform="translate(0 -14.84)" fill="url(#linear-gradient)"/>
      <g id="Group_3798" data-name="Group 3798" transform="translate(-212.214 -287.733)">
        <g id="Group_3771" data-name="Group 3771" transform="translate(272.994 305.334)">
          <rect id="Rectangle_2325" data-name="Rectangle 2325" width="122.005" height="167.708" rx="10" transform="translate(0 0)" fill="#ef5050"/>
          <path id="Path_13590" data-name="Path 13590" d="M531.236,470.2V312.693a5.112,5.112,0,0,1,5.1-5.1H648.144a5.028,5.028,0,0,1,1.777.328,5.105,5.105,0,0,0-4.428-2.588H533.684a5.114,5.114,0,0,0-5.1,5.1V467.944a5.112,5.112,0,0,0,3.32,4.77A5.045,5.045,0,0,1,531.236,470.2Z" transform="translate(-528.585 -305.334)" fill="#d3effd" opacity="0.2" style="mix-blend-mode: screen;isolation: isolate"/>
          <path id="Path_13591" data-name="Path 13591" d="M721.4,599.9h-95.26a4.349,4.349,0,0,1-4.338-4.337V461.737a4.35,4.35,0,0,1,4.338-4.338H721.4a4.351,4.351,0,0,1,4.338,4.338V595.565A4.351,4.351,0,0,1,721.4,599.9Z" transform="translate(-610.872 -439.561)" fill="#edd2dc" style="mix-blend-mode: multiply;isolation: isolate"/>
          <rect id="Rectangle_2326" data-name="Rectangle 2326" width="103.572" height="142.502" rx="6" transform="translate(9.217 15.549)" fill="#fff"/>
          <path id="Rectangle_2327" data-name="Rectangle 2327" d="M6.8,0H58.213a6.8,6.8,0,0,1,6.8,6.8v0a6.8,6.8,0,0,1-6.8,6.8H6.8A6.8,6.8,0,0,1,0,6.8v0A6.8,6.8,0,0,1,6.8,0Z" transform="translate(28.637 11.153)" fill="#a8b9cc"/>
          <path id="Path_13592" data-name="Path 13592" d="M935,350.393H903.474a1.592,1.592,0,0,1-1.591-1.592l2.609-7.326a1.923,1.923,0,0,1,1.713-1.352h26.066a1.917,1.917,0,0,1,1.71,1.352l2.611,7.326A1.591,1.591,0,0,1,935,350.393Z" transform="translate(-858.094 -336.043)" fill="#a8b9cc"/>
          <g id="Group_3770" data-name="Group 3770" transform="translate(19.281 39.973)">
            <g id="Group_3767" data-name="Group 3767">
              <path id="Path_13593" data-name="Path 13593" d="M719.622,659.436A13.332,13.332,0,1,1,706.289,646.1,13.333,13.333,0,0,1,719.622,659.436Z" transform="translate(-692.958 -646.104)" fill="#236e9b"/>
            </g>
            <g id="Group_3768" data-name="Group 3768" transform="translate(11.66 4.348)">
              <rect id="Rectangle_2328" data-name="Rectangle 2328" width="3.343" height="17.968" fill="#fff"/>
            </g>
            <g id="Group_3769" data-name="Group 3769" transform="translate(4.347 11.66)">
              <rect id="Rectangle_2329" data-name="Rectangle 2329" width="17.968" height="3.343" fill="#fff"/>
            </g>
          </g>
          <path id="Path_13602" data-name="Path 13602" d="M45.12,0" transform="translate(55.876 53.305)" fill="none" stroke="#a3def5" stroke-width="28.508"/>
          <line id="Line_117" data-name="Line 117" x2="81.715" transform="translate(19.281 126.925)" fill="none" stroke="#a3def5" stroke-miterlimit="10" stroke-width="5"/>
          <line id="Line_120" data-name="Line 120" x2="51.812" transform="translate(35.238 20.199)" fill="none" stroke="#95aac0" stroke-linecap="round" stroke-linejoin="round" stroke-width="4.88"/>
          <line id="Line_121" data-name="Line 121" x2="51.812" transform="translate(35.238 15.549)" fill="none" stroke="#95aac0" stroke-linecap="round" stroke-linejoin="round" stroke-width="4.88"/>
          <line id="Line_129" data-name="Line 129" x2="81.715" transform="translate(19.281 116.924)" fill="none" stroke="#a3def5" stroke-miterlimit="10" stroke-width="5"/>
          <line id="Line_130" data-name="Line 130" x2="81.715" transform="translate(19.281 106.924)" fill="none" stroke="#a3def5" stroke-miterlimit="10" stroke-width="5"/>
          <line id="Line_131" data-name="Line 131" x2="81.715" transform="translate(19.281 96.924)" fill="none" stroke="#a3def5" stroke-miterlimit="10" stroke-width="5"/>
          <line id="Line_132" data-name="Line 132" x2="81.715" transform="translate(19.281 86.924)" fill="none" stroke="#a3def5" stroke-miterlimit="10" stroke-width="5"/>
          <line id="Line_133" data-name="Line 133" x2="81.715" transform="translate(19.281 76.924)" fill="none" stroke="#a3def5" stroke-miterlimit="10" stroke-width="5"/>
          <line id="Line_134" data-name="Line 134" x2="45.276" transform="translate(55.72 66.924)" fill="none" stroke="#a3def5" stroke-miterlimit="10" stroke-width="5"/>
          <line id="Line_135" data-name="Line 135" x2="45.276" transform="translate(55.72 56.924)" fill="none" stroke="#a3def5" stroke-miterlimit="10" stroke-width="5"/>
          <line id="Line_136" data-name="Line 136" x2="45.276" transform="translate(55.72 46.924)" fill="none" stroke="#a3def5" stroke-miterlimit="10" stroke-width="5"/>
          <line id="Line_137" data-name="Line 137" x2="45.276" transform="translate(55.72 36.924)" fill="none" stroke="#a3def5" stroke-miterlimit="10" stroke-width="5"/>
        </g>
        <g id="Group_3773" data-name="Group 3773" transform="translate(374.225 363.126)">
          <g id="Group_3772" data-name="Group 3772" transform="translate(19.134 0)">
            <path id="Path_13594" data-name="Path 13594" d="M1593.512,822.985h-4.557a3.16,3.16,0,0,1-3.151-3.151V801.159a3.16,3.16,0,0,1,3.151-3.151h4.557a3.159,3.159,0,0,1,3.151,3.151v18.675A3.159,3.159,0,0,1,1593.512,822.985Z" transform="translate(-1582.154 -798.008)" fill="#4fa6d4"/>
            <rect id="Rectangle_2330" data-name="Rectangle 2330" width="4.086" height="3.495" transform="translate(0 4.947)" fill="#4fa6d4"/>
          </g>
          <path id="Path_13595" data-name="Path 13595" d="M1559.944,921.726h-12.569a1.375,1.375,0,0,0-1.369,1.507,16.532,16.532,0,0,1-.049,4.667c-.64,3.168-1.3,4.68-2.628,6.174h20.741a19.047,19.047,0,0,1-2.687-6.677,15.824,15.824,0,0,1-.072-4.162A1.373,1.373,0,0,0,1559.944,921.726Z" transform="translate(-1525.528 -907.214)" fill="#9899cb"/>
          <path id="Path_13596" data-name="Path 13596" d="M1462.741,1080.946H1410.3v-61.741a26.219,26.219,0,0,1,26.219-26.22h0a26.22,26.22,0,0,1,26.221,26.22Z" transform="translate(-1408.105 -970.114)" fill="#9899cb"/>
          <path id="Path_13597" data-name="Path 13597" d="M1461.772,1156.355c.142,5,.13,10.005-.209,15-.45,6.659-1.932,16.992-4.067,23.334-4.482,13.325-11.414,21.608-26.171,25.062-3.509.822-8.167,1.4-11.7,2.108a28.009,28.009,0,0,1-9.325.6v2.693h52.439v-61.741A26.221,26.221,0,0,0,1461.772,1156.355Z" transform="translate(-1408.105 -1114.32)" fill="#e3e0e7" style="mix-blend-mode: multiply;isolation: isolate"/>
          <path id="Path_13598" data-name="Path 13598" d="M1532.255,1219.093c0,14.373-6.827,26.024-15.248,26.024s-15.247-11.651-15.247-26.024,6.826-26.024,15.247-26.024S1532.255,1204.721,1532.255,1219.093Z" transform="translate(-1488.835 -1146.727)" fill="#fff"/>
          <rect id="Rectangle_2331" data-name="Rectangle 2331" width="57.563" height="5.267" transform="translate(0 110.833)" fill="#4fa6d4"/>
        </g>
        <g id="Group_3779" data-name="Group 3779" transform="translate(341.41 425.411)">
          <rect id="Rectangle_2332" data-name="Rectangle 2332" width="21.606" height="4.957" transform="translate(8.63 7.448)" fill="#5bbdb3"/>
          <path id="Rectangle_2333" data-name="Rectangle 2333" d="M19.435,0h0A19.432,19.432,0,0,1,38.867,19.432v7.582a19.43,19.43,0,0,1-19.43,19.43h-.009A19.428,19.428,0,0,1,0,27.016V19.435A19.435,19.435,0,0,1,19.435,0Z" transform="translate(0 10.682)" fill="#5bbdb3"/>
          <rect id="Rectangle_2334" data-name="Rectangle 2334" width="38.867" height="23.259" transform="translate(0 22.275)" fill="#fff"/>
          <g id="Group_3777" data-name="Group 3777" transform="translate(11.3 25.641)">
            <g id="Group_3774" data-name="Group 3774">
              <path id="Path_13599" data-name="Path 13599" d="M1224.426,1555.7a8.133,8.133,0,1,1-8.133-8.133A8.132,8.132,0,0,1,1224.426,1555.7Z" transform="translate(-1208.16 -1547.57)" fill="#236e9b"/>
            </g>
            <g id="Group_3775" data-name="Group 3775" transform="translate(7.113 2.653)">
              <rect id="Rectangle_2335" data-name="Rectangle 2335" width="2.04" height="10.961" fill="#fff"/>
            </g>
            <g id="Group_3776" data-name="Group 3776" transform="translate(2.653 7.113)">
              <rect id="Rectangle_2336" data-name="Rectangle 2336" width="10.96" height="2.04" fill="#fff"/>
            </g>
          </g>
          <path id="Rectangle_2337" data-name="Rectangle 2337" d="M4.318,0H25.565a4.319,4.319,0,0,1,4.319,4.319v0a4.32,4.32,0,0,1-4.32,4.32H4.319A4.319,4.319,0,0,1,0,4.32v0A4.318,4.318,0,0,1,4.318,0Z" transform="translate(4.491 0)" fill="#a3def5"/>
          <g id="Group_3778" data-name="Group 3778" transform="translate(7.72 0.831)">
            <line id="Line_122" data-name="Line 122" y2="6.978" fill="none" stroke="#77c3e9" stroke-linecap="round" stroke-linejoin="round" stroke-width="3.974"/>
            <line id="Line_123" data-name="Line 123" y2="6.978" transform="translate(3.905)" fill="none" stroke="#77c3e9" stroke-linecap="round" stroke-linejoin="round" stroke-width="3.974"/>
            <line id="Line_124" data-name="Line 124" y2="6.978" transform="translate(7.809)" fill="none" stroke="#77c3e9" stroke-linecap="round" stroke-linejoin="round" stroke-width="3.974"/>
            <line id="Line_125" data-name="Line 125" y2="6.978" transform="translate(11.714)" fill="none" stroke="#77c3e9" stroke-linecap="round" stroke-linejoin="round" stroke-width="3.974"/>
            <line id="Line_126" data-name="Line 126" y2="6.978" transform="translate(15.616)" fill="none" stroke="#77c3e9" stroke-linecap="round" stroke-linejoin="round" stroke-width="3.974"/>
            <line id="Line_127" data-name="Line 127" y2="6.978" transform="translate(19.521)" fill="none" stroke="#77c3e9" stroke-linecap="round" stroke-linejoin="round" stroke-width="3.974"/>
            <line id="Line_128" data-name="Line 128" y2="6.978" transform="translate(23.425)" fill="none" stroke="#77c3e9" stroke-linecap="round" stroke-linejoin="round" stroke-width="3.974"/>
          </g>
          <path id="Path_13600" data-name="Path 13600" d="M1150.1,1435.768a51.668,51.668,0,0,1-.209,7.3c-.114,1.241-.328,2.473-.386,3.718-.436,9.427-1.414,20.358-9.3,26.282-5.719,4.3-14.628,5.2-21.6,5-2.157-.061-4.321-.221-6.24-1.828a4.9,4.9,0,0,0,4.821,4.128h29.1a4.9,4.9,0,0,0,4.886-4.886v-36.672A4.854,4.854,0,0,0,1150.1,1435.768Z" transform="translate(-1112.311 -1423.242)" fill="#dde3e9" style="mix-blend-mode: multiply;isolation: isolate"/>
          <path id="Path_13601" data-name="Path 13601" d="M1150.922,1336.323v-4.438c0-1.156.229-2.391,1.919-2.35h25.681a3.173,3.173,0,0,1,1.2.516,2.1,2.1,0,0,0-1.827-1.07h-25.682a2.107,2.107,0,0,0-2.1,2.1v4.438a2.1,2.1,0,0,0,1.081,1.833A2.074,2.074,0,0,1,1150.922,1336.323Z" transform="translate(-1145.623 -1328.982)" fill="#d3effd" opacity="0.5" style="mix-blend-mode: screen;isolation: isolate"/>
        </g>
      </g>
    </g>
    <g id="Group_1690" data-name="Group 1690" transform="translate(20.814 6.174)">
      <path id="Path_32" data-name="Path 32" d="M66.606,393.474a6.979,6.979,0,1,1,6.979-6.978A6.986,6.986,0,0,1,66.606,393.474Zm0-9.074a2.1,2.1,0,1,0,2.1,2.1A2.1,2.1,0,0,0,66.606,384.4Z" transform="translate(-71.326 -197.626)" fill="#ef5050"/>
      <path id="Path_33" data-name="Path 33" d="M431.6,158.588a2.441,2.441,0,0,1-2.441-2.441,2.933,2.933,0,0,0-2.93-2.93,2.441,2.441,0,0,1,0-4.883,2.933,2.933,0,0,0,2.93-2.93,2.441,2.441,0,1,1,4.883,0,2.933,2.933,0,0,0,2.93,2.93,2.441,2.441,0,0,1,0,4.883,2.933,2.933,0,0,0-2.93,2.93A2.441,2.441,0,0,1,431.6,158.588Z" transform="translate(-217.676 -96.576)" fill="#01eca5"/>
      <path id="Path_34" data-name="Path 34" d="M417.6,205.3a2.441,2.441,0,0,1-2.441-2.441,2.933,2.933,0,0,0-2.93-2.93,2.441,2.441,0,0,1,0-4.883,2.933,2.933,0,0,0,2.93-2.93,2.441,2.441,0,0,1,4.883,0,2.933,2.933,0,0,0,2.93,2.93,2.441,2.441,0,1,1,0,4.883,2.933,2.933,0,0,0-2.93,2.93A2.441,2.441,0,0,1,417.6,205.3Z" transform="translate(-210.511 -120.482)" fill="#6583fe"/>
      <path id="Path_35" data-name="Path 35" d="M50.439,311.182A2.442,2.442,0,0,1,48,308.74a2.933,2.933,0,0,0-2.93-2.93,2.441,2.441,0,0,1,0-4.883A2.933,2.933,0,0,0,48,298a2.441,2.441,0,1,1,4.883,0,2.933,2.933,0,0,0,2.93,2.93,2.441,2.441,0,0,1,0,4.883,2.933,2.933,0,0,0-2.93,2.93A2.441,2.441,0,0,1,50.439,311.182Z" transform="translate(-62.627 -154.662)" fill="#01eca5"/>
      <path id="Path_36" data-name="Path 36" d="M80.335,340.831a2.442,2.442,0,0,1-2.441-2.441,2.933,2.933,0,0,0-2.93-2.93,2.441,2.441,0,0,1,0-4.883,2.933,2.933,0,0,0,2.93-2.93,2.441,2.441,0,1,1,4.883,0,2.933,2.933,0,0,0,2.93,2.93,2.441,2.441,0,1,1,0,4.883,2.933,2.933,0,0,0-2.93,2.93A2.442,2.442,0,0,1,80.335,340.831Z" transform="translate(-77.925 -169.833)" fill="#6583fe"/>
    </g>
  </g>
</svg>
