<svg xmlns="http://www.w3.org/2000/svg" width="58" height="59" viewBox="0 0 58 59">
  <g id="pintrest" transform="translate(0 0.001)">
    <g id="XMLID_798_" transform="translate(18.075 15.702)">
      <path id="XMLID_799_" d="M52.273,2.725A11,11,0,0,0,44.786,0a12.069,12.069,0,0,0-8.679,3.189A9.211,9.211,0,0,0,33.181,9.72c0,2.961,1.3,5.233,3.476,6.078a1.2,1.2,0,0,0,.437.086.962.962,0,0,0,.949-.745c.073-.263.244-.913.318-1.2a1.087,1.087,0,0,0-.315-1.213,3.751,3.751,0,0,1-.923-2.641c0-3.244,2.535-6.692,7.233-6.692,3.728,0,6.044,2.019,6.044,5.269a10.533,10.533,0,0,1-1.306,5.348A3.856,3.856,0,0,1,45.9,16.144a2.161,2.161,0,0,1-1.684-.734,1.778,1.778,0,0,1-.339-1.6c.166-.67.393-1.369.612-2.045a12.151,12.151,0,0,0,.778-3.331,2.47,2.47,0,0,0-2.554-2.66c-1.942,0-3.463,1.879-3.463,4.278a6.1,6.1,0,0,0,.477,2.394c-.245.988-1.7,6.858-1.974,7.965-.159.646-1.12,5.751.47,6.158,1.786.457,3.383-4.514,3.545-5.076.132-.457.593-2.184.875-3.246a5.55,5.55,0,0,0,3.6,1.326A8.173,8.173,0,0,0,52.693,16.5a11.946,11.946,0,0,0,2.424-7.547A8.515,8.515,0,0,0,52.273,2.725Z" transform="translate(-33.181 0)" fill="#5e5e63"/>
    </g>
    <g id="Ellipse_18" data-name="Ellipse 18" transform="translate(0 -0.001)" fill="none" stroke="#6f6f75" stroke-width="1">
      <ellipse cx="29" cy="29.5" rx="29" ry="29.5" stroke="none"/>
      <ellipse cx="29" cy="29.5" rx="28.5" ry="29" fill="none"/>
    </g>
  </g>
</svg>
