<svg xmlns="http://www.w3.org/2000/svg" xmlns:xlink="http://www.w3.org/1999/xlink" width="250" height="232.405" viewBox="0 0 250 232.405">
  <defs>
    <linearGradient id="linear-gradient" x1="0.124" y1="0.755" x2="0.906" y2="0.27" gradientUnits="objectBoundingBox">
      <stop offset="0" stop-color="#dcfdee" stop-opacity="0"/>
      <stop offset="0.629" stop-color="#d2f3e4"/>
    </linearGradient>
  </defs>
  <g id="smartphone_1_" data-name="smartphone (1)" transform="translate(6)">
    <g id="Group_1681" data-name="Group 1681" transform="translate(-6)">
      <path id="Path_11" data-name="Path 11" d="M9.93,71.233C-1.772,90.471-3.006,123.779,5.567,144.6c7.508,18.238,22.444,35.356,42.051,37.5,7.21.789,14.579-.5,21.715.8,24.54,4.469,33.668,34.712,52.739,50.788,13.272,11.188,31.688,15.147,48.913,12.992s33.351-9.943,47.547-19.934c11.21-7.889,21.7-17.589,27.228-30.13,11.594-26.288-2.046-57.862-23.236-77.265-6.6-6.043-13.956-11.374-19.47-18.421s-9.023-16.453-6.4-25.007c2.1-6.825,7.739-12.115,9.876-18.927,2.909-9.27-1.482-19.668-8.692-26.18s-16.752-9.785-26.2-12.031C132.037,9.371,45.259,13.158,9.93,71.233Z" transform="translate(0 -14.84)" fill="url(#linear-gradient)"/>
      <g id="analysis" transform="translate(53.583 44.785)">
        <path id="Path_13664" data-name="Path 13664" d="M14.569,14.569A11.571,11.571,0,0,0,3,3H104.812a11.571,11.571,0,0,1,11.569,11.569V137.206H26.139a11.571,11.571,0,0,1-11.569-11.57Z" transform="translate(1.314 1.314)" fill="#fffcf5"/>
        <path id="Path_13665" data-name="Path 13665" d="M52.942,64.336a6.941,6.941,0,0,0,6.942-6.942V25H46V57.395A6.941,6.941,0,0,0,52.942,64.336Z" transform="translate(57.812 30.22)" fill="#5aa2ff"/>
        <path id="Path_13666" data-name="Path 13666" d="M50.628,57.395V25H46V57.395a6.941,6.941,0,0,0,6.942,6.942,6.853,6.853,0,0,0,2.314-.426A6.919,6.919,0,0,1,50.628,57.395Z" transform="translate(57.812 30.22)" fill="#2b67b3"/>
        <circle id="Ellipse_761" data-name="Ellipse 761" cx="28" cy="28" r="28" transform="translate(83 3.834)" fill="#a8d5fe"/>
        <path id="Path_13667" data-name="Path 13667" d="M117.125,55H24.569v2.314A11.571,11.571,0,0,1,13,68.883h90.242A13.883,13.883,0,0,0,117.125,55Z" transform="translate(14.453 69.637)" fill="#e8e5df"/>
        <g id="Group_3882" data-name="Group 3882" transform="translate(8.942 62.161)">
          <ellipse id="Ellipse_762" data-name="Ellipse 762" cx="4.5" cy="5" rx="4.5" ry="5" transform="translate(0.059 29.673)" fill="#febe07"/>
          <path id="Path_13668" data-name="Path 13668" d="M37.628,46.256a4.628,4.628,0,1,0-3.954-7A4.577,4.577,0,0,0,33,41.628,4.627,4.627,0,0,0,37.628,46.256Z" transform="translate(31.789 -16.175)" fill="#febe07"/>
          <path id="Path_13669" data-name="Path 13669" d="M26.582,35a4.577,4.577,0,0,0,.673-2.372A4.673,4.673,0,1,0,26.582,35Z" transform="translate(12.081 -28)" fill="#febe07"/>
        </g>
        <circle id="Ellipse_763" data-name="Ellipse 763" cx="21" cy="21" r="21" transform="translate(90 10.834)" fill="#cbe6fe"/>
        <path id="Path_13670" data-name="Path 13670" d="M55.961,60.912V92.529a7.635,7.635,0,0,0,15.249.592A6.848,6.848,0,0,1,63.081,86.3V57.624A27.747,27.747,0,0,1,67.037,3.167,11.324,11.324,0,0,0,65.395,3H51.949a30.59,30.59,0,0,0,4.012,57.912Z" transform="translate(40.731 1.314)" fill="#e8e5df"/>
        <path id="Path_13671" data-name="Path 13671" d="M13,11H59.278" transform="translate(14.453 11.825)" fill="#fff"/>
        <path id="Path_13672" data-name="Path 13672" d="M13,10H59.278v4.628H13Z" transform="translate(14.453 10.511)" fill="#ef5050"/>
        <path id="Path_13673" data-name="Path 13673" d="M13,16H59.278" transform="translate(14.453 18.395)" fill="#fff"/>
        <path id="Path_13674" data-name="Path 13674" d="M13,15H59.278v4.628H13Z" transform="translate(14.453 17.081)" fill="#ef5050"/>
        <path id="Path_13675" data-name="Path 13675" d="M13,21H59.278" transform="translate(14.453 24.964)" fill="#fff"/>
        <path id="Path_13676" data-name="Path 13676" d="M13,20H59.278v4.628H13Z" transform="translate(14.453 23.65)" fill="#ef5050"/>
        <path id="Path_13677" data-name="Path 13677" d="M13,47H91.673" transform="translate(14.453 59.125)" fill="#fff"/>
        <path id="Path_13678" data-name="Path 13678" d="M13,46H91.673v4.628H13Z" transform="translate(14.453 57.812)" fill="#ef5050"/>
        <path id="Path_13679" data-name="Path 13679" d="M66.081,2a30.074,30.074,0,0,0-9.256,58.69V87.614a9.256,9.256,0,1,0,18.511,0V60.69A30.074,30.074,0,0,0,66.081,2Zm0,90.242a4.632,4.632,0,0,1-4.628-4.628v-16.2h9.256v16.2A4.632,4.632,0,0,1,66.081,92.242Zm4.628-25.453H61.453V61.768a27.419,27.419,0,0,0,9.256,0Zm-4.628-9.256A25.453,25.453,0,1,1,91.534,32.081,25.483,25.483,0,0,1,66.081,57.534Z" transform="translate(44.673)" fill="#005d8d"/>
        <path id="Path_13680" data-name="Path 13680" d="M55.17,12.628a3.714,3.714,0,0,1,2.059,6.805l-4.258,2.839a2.317,2.317,0,0,0-1.03,1.925v4.628h4.628v-3.39L59.8,23.283A8.343,8.343,0,0,0,55.17,8H53.344A8.351,8.351,0,0,0,45,16.342h4.628a3.718,3.718,0,0,1,3.714-3.714Z" transform="translate(56.498 7.883)" fill="#005d8d"/>
        <path id="Path_13681" data-name="Path 13681" d="M48,19h4.628v4.628H48Z" transform="translate(60.439 22.336)" fill="#005d8d"/>
        <path id="Path_13682" data-name="Path 13682" d="M108.812,45V65.825H32.453a2.315,2.315,0,0,0-2.314,2.314v2.314a9.256,9.256,0,1,1-18.511,0V51.942H7V70.453A13.9,13.9,0,0,0,20.883,84.336h90.242a16.215,16.215,0,0,0,16.2-16.2,2.315,2.315,0,0,0-2.314-2.314h-11.57V45Zm2.314,34.708h-79.9a13.828,13.828,0,0,0,3.545-9.256h87.694a11.587,11.587,0,0,1-11.336,9.256Z" transform="translate(6.569 56.498)" fill="#ef5050"/>
        <path id="Path_13683" data-name="Path 13683" d="M4.314,6.628a9.265,9.265,0,0,1,9.256,9.256v67.1H18.2v-67.1a13.828,13.828,0,0,0-3.545-9.256H89.928V2H4.314a2.314,2.314,0,0,0,0,4.628Z" fill="#ef5050"/>
        <path id="Path_13684" data-name="Path 13684" d="M77.334,48.746a6.811,6.811,0,0,0-1.6-.206,6.88,6.88,0,0,0-4.389,1.608L47.825,36.04a6.942,6.942,0,1,0-13.745-1.384,6.828,6.828,0,0,0,.7,2.973L13.934,58.473l.06.06a6.851,6.851,0,0,0-3.052-.738,6.942,6.942,0,1,0,6.942,6.942,6.851,6.851,0,0,0-.738-3.052l.06.06L38.049,40.9a6.756,6.756,0,0,0,7.363-.912L68.928,54.1a6.942,6.942,0,1,0,13.745,1.381A6.867,6.867,0,0,0,81.21,51.27l14.429-22.3-3.885-2.515ZM10.942,67.051a2.314,2.314,0,1,1,2.314-2.314A2.318,2.318,0,0,1,10.942,67.051ZM41.022,36.97a2.314,2.314,0,1,1,2.314-2.314A2.318,2.318,0,0,1,41.022,36.97ZM75.731,57.8a2.314,2.314,0,1,1,2.314-2.314A2.318,2.318,0,0,1,75.731,57.8Z" transform="translate(2.628 32.133)" fill="#005d8d"/>
        <path id="Path_13685" data-name="Path 13685" d="M49,5V9.628A18.511,18.511,0,1,1,49,46.65v4.628A23.139,23.139,0,0,0,49,5Z" transform="translate(61.753 3.942)" fill="#005d8d"/>
        <path id="Path_13686" data-name="Path 13686" d="M16,50h9.256v4.628H16Z" transform="translate(18.395 63.067)" fill="#ef5050"/>
        <path id="Path_13687" data-name="Path 13687" d="M28,50h9.256v4.628H28Z" transform="translate(34.161 63.067)" fill="#ef5050"/>
        <path id="Path_13688" data-name="Path 13688" d="M40,50h9.256v4.628H40Z" transform="translate(49.928 63.067)" fill="#ef5050"/>
      </g>
    </g>
    <g id="Group_1690" data-name="Group 1690" transform="translate(20.814 6.174)">
      <path id="Path_32" data-name="Path 32" d="M66.606,393.474a6.979,6.979,0,1,1,6.979-6.978A6.986,6.986,0,0,1,66.606,393.474Zm0-9.074a2.1,2.1,0,1,0,2.1,2.1A2.1,2.1,0,0,0,66.606,384.4Z" transform="translate(-71.326 -197.626)" fill="#ef5050"/>
      <path id="Path_33" data-name="Path 33" d="M431.6,158.588a2.441,2.441,0,0,1-2.441-2.441,2.933,2.933,0,0,0-2.93-2.93,2.441,2.441,0,0,1,0-4.883,2.933,2.933,0,0,0,2.93-2.93,2.441,2.441,0,1,1,4.883,0,2.933,2.933,0,0,0,2.93,2.93,2.441,2.441,0,0,1,0,4.883,2.933,2.933,0,0,0-2.93,2.93A2.441,2.441,0,0,1,431.6,158.588Z" transform="translate(-217.676 -96.576)" fill="#01eca5"/>
      <path id="Path_34" data-name="Path 34" d="M417.6,205.3a2.441,2.441,0,0,1-2.441-2.441,2.933,2.933,0,0,0-2.93-2.93,2.441,2.441,0,0,1,0-4.883,2.933,2.933,0,0,0,2.93-2.93,2.441,2.441,0,0,1,4.883,0,2.933,2.933,0,0,0,2.93,2.93,2.441,2.441,0,1,1,0,4.883,2.933,2.933,0,0,0-2.93,2.93A2.441,2.441,0,0,1,417.6,205.3Z" transform="translate(-210.511 -120.482)" fill="#6583fe"/>
      <path id="Path_35" data-name="Path 35" d="M50.439,311.182A2.442,2.442,0,0,1,48,308.74a2.933,2.933,0,0,0-2.93-2.93,2.441,2.441,0,0,1,0-4.883A2.933,2.933,0,0,0,48,298a2.441,2.441,0,1,1,4.883,0,2.933,2.933,0,0,0,2.93,2.93,2.441,2.441,0,0,1,0,4.883,2.933,2.933,0,0,0-2.93,2.93A2.441,2.441,0,0,1,50.439,311.182Z" transform="translate(-62.627 -154.662)" fill="#01eca5"/>
      <path id="Path_36" data-name="Path 36" d="M80.335,340.831a2.442,2.442,0,0,1-2.441-2.441,2.933,2.933,0,0,0-2.93-2.93,2.441,2.441,0,0,1,0-4.883,2.933,2.933,0,0,0,2.93-2.93,2.441,2.441,0,1,1,4.883,0,2.933,2.933,0,0,0,2.93,2.93,2.441,2.441,0,1,1,0,4.883,2.933,2.933,0,0,0-2.93,2.93A2.442,2.442,0,0,1,80.335,340.831Z" transform="translate(-77.925 -169.833)" fill="#6583fe"/>
    </g>
  </g>
</svg>
