<svg xmlns="http://www.w3.org/2000/svg" xmlns:xlink="http://www.w3.org/1999/xlink" width="258.554" height="232.405" viewBox="0 0 258.554 232.405">
  <defs>
    <linearGradient id="linear-gradient" x1="0.124" y1="0.755" x2="0.906" y2="0.27" gradientUnits="objectBoundingBox">
      <stop offset="0" stop-color="#dcfdee" stop-opacity="0"/>
      <stop offset="0.629" stop-color="#d2f3e4"/>
    </linearGradient>
  </defs>
  <g id="Group_3891" data-name="Group 3891" transform="translate(-86 -47.046)">
    <g id="Group_3819" data-name="Group 3819">
      <g id="smartphone_1_" data-name="smartphone (1)" transform="translate(86 47.046)">
        <g id="Group_1681" data-name="Group 1681">
          <path id="Path_11" data-name="Path 11" d="M9.93,71.233C-1.772,90.471-3.006,123.779,5.567,144.6c7.508,18.238,22.444,35.356,42.051,37.5,7.21.789,14.579-.5,21.715.8,24.54,4.469,33.668,34.712,52.739,50.788,13.272,11.188,31.688,15.147,48.913,12.992s33.351-9.943,47.547-19.934c11.21-7.889,21.7-17.589,27.228-30.13,11.594-26.288-2.046-57.862-23.236-77.265-6.6-6.043-13.956-11.374-19.47-18.421s-9.023-16.453-6.4-25.007c2.1-6.825,7.739-12.115,9.876-18.927,2.909-9.27-1.482-19.668-8.692-26.18s-16.752-9.785-26.2-12.031C132.037,9.371,45.259,13.158,9.93,71.233Z" transform="translate(0 -14.84)" fill="url(#linear-gradient)"/>
        </g>
      </g>
      <g id="pulse-line" transform="translate(138.254 93.412)">
        <g id="Group_3881" data-name="Group 3881" transform="translate(0 5.878)">
          <path id="Path_13663" data-name="Path 13663" d="M59.82,108.83c-2.869,0-5.352-1.277-5.934-4.084l-8.04-38.491-5.295,9.137a6.221,6.221,0,0,1-5.212,3.157H6.057a6.057,6.057,0,1,1,0-12.114h25.82L43.389,46.98A6.053,6.053,0,0,1,54.53,48.83L59.4,72.348,70.5,10.766a5.974,5.974,0,0,1,5.964-4.888h.026a5.959,5.959,0,0,1,5.944,4.934L94.278,79.94l3.812-9.658a6.059,6.059,0,0,1,5.63-3.858h53.737a6.06,6.06,0,0,1,0,12.12H107.83l-10.25,25.9a6.055,6.055,0,0,1-11.6-1.21L76.318,46.759,65.779,104.575c-.515,2.859-2.982,4.244-5.882,4.244A.2.2,0,0,1,59.82,108.83Z" transform="translate(0 -5.878)" fill="#ef5050"/>
        </g>
      </g>
    </g>
    <path id="Path_13642" data-name="Path 13642" d="M66.606,393.474a6.979,6.979,0,1,1,6.979-6.978A6.986,6.986,0,0,1,66.606,393.474Zm0-9.074a2.1,2.1,0,1,0,2.1,2.1A2.1,2.1,0,0,0,66.606,384.4Z" transform="translate(51.488 -130.406)" fill="#ef5050"/>
    <path id="Path_13643" data-name="Path 13643" d="M431.6,158.588a2.441,2.441,0,0,1-2.441-2.441,2.933,2.933,0,0,0-2.93-2.93,2.441,2.441,0,0,1,0-4.883,2.933,2.933,0,0,0,2.93-2.93,2.441,2.441,0,1,1,4.883,0,2.933,2.933,0,0,0,2.93,2.93,2.441,2.441,0,0,1,0,4.883,2.933,2.933,0,0,0-2.93,2.93A2.441,2.441,0,0,1,431.6,158.588Z" transform="translate(-94.861 -29.357)" fill="#01eca5"/>
    <path id="Path_13644" data-name="Path 13644" d="M417.6,205.3a2.441,2.441,0,0,1-2.441-2.441,2.933,2.933,0,0,0-2.93-2.93,2.441,2.441,0,0,1,0-4.883,2.933,2.933,0,0,0,2.93-2.93,2.441,2.441,0,0,1,4.883,0,2.933,2.933,0,0,0,2.93,2.93,2.441,2.441,0,1,1,0,4.883,2.933,2.933,0,0,0-2.93,2.93A2.441,2.441,0,0,1,417.6,205.3Z" transform="translate(-87.697 -53.263)" fill="#6583fe"/>
    <path id="Path_13645" data-name="Path 13645" d="M50.439,311.182A2.442,2.442,0,0,1,48,308.74a2.933,2.933,0,0,0-2.93-2.93,2.441,2.441,0,0,1,0-4.883A2.933,2.933,0,0,0,48,298a2.441,2.441,0,1,1,4.883,0,2.933,2.933,0,0,0,2.93,2.93,2.441,2.441,0,0,1,0,4.883,2.933,2.933,0,0,0-2.93,2.93A2.441,2.441,0,0,1,50.439,311.182Z" transform="translate(60.188 -87.442)" fill="#01eca5"/>
    <path id="Path_13646" data-name="Path 13646" d="M80.335,340.831a2.442,2.442,0,0,1-2.441-2.441,2.933,2.933,0,0,0-2.93-2.93,2.441,2.441,0,0,1,0-4.883,2.933,2.933,0,0,0,2.93-2.93,2.441,2.441,0,1,1,4.883,0,2.933,2.933,0,0,0,2.93,2.93,2.441,2.441,0,1,1,0,4.883,2.933,2.933,0,0,0-2.93,2.93A2.442,2.442,0,0,1,80.335,340.831Z" transform="translate(44.889 -102.614)" fill="#6583fe"/>
  </g>
</svg>
