<svg xmlns="http://www.w3.org/2000/svg" width="58" height="59" viewBox="0 0 58 59">
  <g id="Twitter" transform="translate(0 0.001)">
    <path id="twitter_1_" data-name="twitter (1)" d="M32.734,51.149a13.992,13.992,0,0,1-3.867,1.06A6.673,6.673,0,0,0,31.819,48.5a13.411,13.411,0,0,1-4.255,1.624,6.71,6.71,0,0,0-11.608,4.589,6.91,6.91,0,0,0,.155,1.53A19,19,0,0,1,2.279,49.223a6.713,6.713,0,0,0,2.062,8.969,6.627,6.627,0,0,1-3.032-.827v.074a6.742,6.742,0,0,0,5.377,6.594,6.7,6.7,0,0,1-1.759.221,5.933,5.933,0,0,1-1.27-.115,6.775,6.775,0,0,0,6.271,4.675,13.484,13.484,0,0,1-8.321,2.862A12.57,12.57,0,0,1,0,71.585,18.893,18.893,0,0,0,10.295,74.6c12.349,0,19.1-10.229,19.1-19.1,0-.3-.01-.583-.025-.867A13.388,13.388,0,0,0,32.734,51.149Z" transform="translate(12.059 -32.298)" fill="#5e5e63"/>
    <g id="Ellipse_16" data-name="Ellipse 16" transform="translate(0 -0.001)" fill="none" stroke="#6f6f75" stroke-width="1">
      <ellipse cx="29" cy="29.5" rx="29" ry="29.5" stroke="none"/>
      <ellipse cx="29" cy="29.5" rx="28.5" ry="29" fill="none"/>
    </g>
  </g>
</svg>
