<svg xmlns="http://www.w3.org/2000/svg" width="127.5" height="42.482" viewBox="0 0 127.5 42.482">
  <g id="Group_2862" data-name="Group 2862" transform="translate(-243.872 -264.525)">
    <g id="Group_2857" data-name="Group 2857" transform="translate(0 -0.817)">
      <text id="Nabda" transform="translate(294.372 291.342)" fill="#005d8d" font-size="27" font-family="ChalkboardSE, Chalkboard SE"><tspan x="0" y="0">Nabda</tspan></text>
      <text id="Because_we_care" data-name="Because we care" transform="translate(296.372 302.342)" fill="#005d8d" font-size="8" font-family="ChalkboardSE-Light, Chalkboard SE" font-weight="300" letter-spacing="0.159em"><tspan x="0" y="0">Because</tspan><tspan y="0" font-size="2"> </tspan><tspan y="0">we</tspan><tspan y="0" font-size="2"> </tspan><tspan y="0">care</tspan></text>
    </g>
    <g id="Group_76" data-name="Group 76" transform="translate(243.872 266.525)">
      <path id="Path_736" data-name="Path 736" d="M410.685,275.871a1.884,1.884,0,0,0-.553-.071,2.234,2.234,0,0,0-.75,4.338,11.509,11.509,0,0,0,.428-1.089A23.136,23.136,0,0,0,410.685,275.871Z" transform="translate(-367.558 -258.724)" fill="#005d8d"/>
      <path id="Path_737" data-name="Path 737" d="M185.557,198.89h5.32l2.714,3.91,6.159-13.64,5.713,13,3.7-3.785,3.821,7.927,3.053-7.409h4.838A3.684,3.684,0,0,1,224.5,195.8a4.1,4.1,0,0,1,.8.089c1.321-9.534-3.178-19.817-15.3-14.086a15.533,15.533,0,0,0-6.267,5.963,15.769,15.769,0,0,0-6.267-5.963c-12.1-5.713-16.586,4.5-15.318,14A3.687,3.687,0,0,1,185.557,198.89Z" transform="translate(-181.94 -180.153)" fill="#005d8d"/>
      <path id="Path_738" data-name="Path 738" d="M230.832,257.941H226.9l-3.91,9.48-4.321-8.962-3.749,3.838-5.267-12-5.874,13-3.731-5.356H195.41a3.646,3.646,0,0,1-1.41,2.125c5.2,10.712,19.639,18.193,19.639,18.193s14.051-7.266,19.407-17.746A3.73,3.73,0,0,1,230.832,257.941Z" transform="translate(-191.847 -237.776)" fill="#005d8d"/>
      <path id="Path_739" data-name="Path 739" d="M184.4,276.1a21.351,21.351,0,0,0,.893,3.214l.214.589a2.243,2.243,0,0,0-1.107-3.8Z" transform="translate(-183.961 -258.97)" fill="#005d8d"/>
    </g>
  </g>
</svg>
