<svg xmlns="http://www.w3.org/2000/svg" xmlns:xlink="http://www.w3.org/1999/xlink" width="38" height="26" viewBox="0 0 38 26">
  <defs>
    <clipPath id="clip-path">
      <rect id="Rectangle_2323" data-name="Rectangle 2323" width="38" height="26" transform="translate(29 204.262)" fill="#fff"/>
    </clipPath>
  </defs>
  <g id="Mask_Group_53" data-name="Mask Group 53" transform="translate(-29 -204.262)" clip-path="url(#clip-path)">
    <g id="password" transform="translate(34.969 204)">
      <path id="Path_13579" data-name="Path 13579" d="M24.21,15.125H2.052A2.054,2.054,0,0,0,0,17.177v4.1a2.054,2.054,0,0,0,2.052,2.052H24.21a2.054,2.054,0,0,0,2.052-2.052v-4.1A2.054,2.054,0,0,0,24.21,15.125ZM6.5,19.9a.411.411,0,0,1-.206.766c-.146,0-.1.009-1.289-.681a.051.051,0,0,0-.077.044v1.238a.42.42,0,0,1-.383.423A.41.41,0,0,1,4.1,21.28V20.028a.051.051,0,0,0-.077-.044c-1.2.695-1.145.681-1.289.681a.411.411,0,0,1-.206-.766l1.084-.626a.051.051,0,0,0,0-.089l-1.084-.626a.41.41,0,0,1,.41-.711l1.084.626a.051.051,0,0,0,.077-.044V17.191a.42.42,0,0,1,.383-.423.41.41,0,0,1,.437.409v1.252A.051.051,0,0,0,5,18.473l1.084-.626a.41.41,0,0,1,.41.711l-1.084.626a.051.051,0,0,0,0,.089Zm5.745,0a.411.411,0,0,1-.206.766c-.146,0-.1.009-1.289-.681a.051.051,0,0,0-.077.044v1.238a.42.42,0,0,1-.383.423.41.41,0,0,1-.437-.409V20.028a.051.051,0,0,0-.077-.044c-1.2.7-1.145.681-1.289.681a.411.411,0,0,1-.206-.766l1.084-.626a.051.051,0,0,0,0-.089l-1.084-.626a.41.41,0,1,1,.41-.711l1.084.626a.051.051,0,0,0,.077-.044V17.191a.42.42,0,0,1,.383-.423.41.41,0,0,1,.437.409v1.252a.051.051,0,0,0,.077.044l1.084-.626a.41.41,0,0,1,.41.711l-1.084.626a.051.051,0,0,0,0,.089Zm5.745,0a.411.411,0,0,1-.206.766c-.146,0-.1.009-1.289-.681a.051.051,0,0,0-.077.044v1.238a.42.42,0,0,1-.383.423.41.41,0,0,1-.437-.409V20.028a.051.051,0,0,0-.077-.044c-1.2.7-1.145.681-1.289.681a.411.411,0,0,1-.206-.766l1.084-.626a.051.051,0,0,0,0-.089l-1.084-.626a.41.41,0,0,1,.41-.711l1.084.626a.051.051,0,0,0,.077-.044V17.191a.42.42,0,0,1,.383-.423.41.41,0,0,1,.437.409v1.252a.051.051,0,0,0,.077.044l1.084-.626a.41.41,0,0,1,.41.711l-1.084.626a.051.051,0,0,0,0,.089Zm5.745,0a.411.411,0,0,1-.206.766c-.146,0-.1.009-1.289-.681a.051.051,0,0,0-.077.044v1.238a.42.42,0,0,1-.383.423.41.41,0,0,1-.437-.409V20.028a.051.051,0,0,0-.077-.044c-1.2.7-1.145.681-1.289.681a.411.411,0,0,1-.206-.766l1.084-.626a.051.051,0,0,0,0-.089l-1.084-.626a.41.41,0,0,1,.41-.711l1.084.626a.051.051,0,0,0,.077-.044V17.191a.42.42,0,0,1,.383-.423.41.41,0,0,1,.437.409v1.252a.051.051,0,0,0,.077.044l1.084-.626a.41.41,0,0,1,.41.711l-1.084.626a.051.051,0,0,0,0,.089Z" transform="translate(0 2.93)" fill="#005d8d"/>
      <path id="Path_13580" data-name="Path 13580" d="M10.585,10.548a.41.41,0,0,1,.2.355v1.04a.41.41,0,1,0,.821,0V10.9a.41.41,0,0,1,.2-.355,1.231,1.231,0,1,0-1.23,0Z" transform="translate(1.931 1.598)" fill="#005d8d"/>
      <path id="Path_13581" data-name="Path 13581" d="M7.419,16.169h9.027a1.233,1.233,0,0,0,1.231-1.231V6.731A1.233,1.233,0,0,0,16.446,5.5H7.419A1.233,1.233,0,0,0,6.188,6.731v8.207A1.233,1.233,0,0,0,7.419,16.169Zm3.113-7.654A2.052,2.052,0,1,1,13.2,11.625a.1.1,0,0,0-.04.081v.742a1.254,1.254,0,0,1-1.252,1.259,1.233,1.233,0,0,1-1.21-1.231v-.771a.1.1,0,0,0-.04-.081A2.053,2.053,0,0,1,10.532,8.514Z" transform="translate(1.199 1.065)" fill="#005d8d"/>
      <path id="Path_13582" data-name="Path 13582" d="M10.025,4.1a1.641,1.641,0,0,1,3.283,0V5.591a.154.154,0,0,0,.154.154h2.154a.154.154,0,0,0,.154-.154V4.156A4.1,4.1,0,1,0,7.563,4.1V5.591a.154.154,0,0,0,.154.154H9.871a.154.154,0,0,0,.154-.154Z" transform="translate(1.465 0)" fill="#005d8d"/>
    </g>
  </g>
</svg>
