<svg xmlns="http://www.w3.org/2000/svg" xmlns:xlink="http://www.w3.org/1999/xlink" width="31.954" height="31.954" viewBox="0 0 31.954 31.954">
  <defs>
    <linearGradient id="linear-gradient" x1="0.147" y1="0.129" x2="0.853" y2="0.851" gradientUnits="objectBoundingBox">
      <stop offset="0.497" stop-color="#fff"/>
      <stop offset="0.5" stop-color="#e6e9ed"/>
    </linearGradient>
  </defs>
  <g id="Group_3670" data-name="Group 3670" transform="translate(-48.042 -273.855)">
    <g id="Group_3668" data-name="Group 3668" transform="translate(48.042 273.855)">
      <path id="color" d="M48.042,289.832a15.977,15.977,0,1,0,15.977-15.977A15.977,15.977,0,0,0,48.042,289.832Z" transform="translate(-48.042 -273.855)" fill="#005d8d"/>
    </g>
    <path id="Path_13583" data-name="Path 13583" d="M91.9,305.117c-.042-.042-.083-.086-.127-.128s-.082-.084-.125-.125-.084-.085-.128-.126-.083-.086-.126-.127-.084-.085-.127-.126-.083-.086-.127-.127-.082-.084-.125-.126-.084-.086-.128-.128-.082-.085-.125-.125-.084-.086-.127-.127-.082-.085-.125-.126-.084-.086-.128-.127-.083-.086-.126-.126-.083-.086-.126-.127-.084-.085-.127-.126-.083-.086-.126-.127-.083-.085-.127-.126-.083-.086-.126-.127-.083-.084-.126-.125-.084-.086-.128-.127-.082-.085-.125-.126-.083-.086-.127-.127-.083-.086-.127-.127-.082-.085-.125-.125-.083-.086-.126-.127-.084-.086-.128-.127-.083-.085-.126-.126-.083-.085-.126-.126-.083-.085-.126-.127-.082-.085-.126-.126-.084-.086-.128-.127-.082-.085-.125-.125-.084-.086-.127-.127-.083-.085-.127-.126-.082-.085-.125-.126-.085-.086-.128-.127-.084-.086-.127-.127-.082-.085-.125-.126-.083-.086-.127-.127-.083-.085-.126-.126-.084-.085-.127-.127-.083-.084-.125-.125-.084-.085-.127-.126-.083-.087-.127-.128-.082-.085-.126-.126-.083-.086-.128-.128-.082-.085-.125-.125-.083-.086-.126-.126-.083-.086-.126-.127-.084-.086-.128-.127-.083-.085-.126-.126-.083-.085-.126-.126-.083-.085-.126-.127-.084-.086-.128-.128-.082-.085-.125-.125-.083-.086-.126-.127-.083-.085-.127-.126-.083-.086-.127-.126-.082-.085-.125-.126-.085-.086-.128-.127-.082-.085-.125-.126-.083-.085-.126-.126-.083-.086-.127-.127-.083-.085-.126-.126-.084-.086-.128-.128-.081-.084-.124-.124-.085-.087-.129-.129-.083-.084-.126-.125-.084-.087-.128-.128-.082-.085-.124-.125-.084-.086-.128-.127-.082-.085-.125-.126-.085-.086-.128-.128a8.5,8.5,0,0,0-3.577-2.117v.035a17.66,17.66,0,0,1-.241-.239,1.016,1.016,0,0,0-.126-.127,1.034,1.034,0,0,0-.128-.127,1,1,0,0,0-.125-.126,1.049,1.049,0,0,0-.127-.127,1.126,1.126,0,0,0-.126-.126,1152.174,1152.174,0,0,0-.253-.253,1.049,1.049,0,0,0-.126-.127,1.1,1.1,0,0,0-.126-.126,1.051,1.051,0,0,0-.127-.127,1.113,1.113,0,0,0-.125-.125,1,1,0,0,0-.127-.126.852.852,0,0,0-.64-.326c-.54,0-.981.588-.981,1.307v2.294l-.026.009v-.169c-.043.013-.084.029-.126.042v-.168c-.043.013-.084.029-.127.043v-.17c-.043.013-.083.03-.126.043v-.169c-.043.013-.085.029-.127.042v-.169c-.043.013-.084.03-.126.043v-.169c-.043.013-.083.029-.126.042V294.4c-.043.013-.084.03-.126.044v-.17c-.043.013-.084.03-.126.043v-.169c-.043.013-.084.029-.126.042v-.17c-.043.013-.084.03-.126.043V293.9c-.043.012-.084.029-.127.042v-.169a8.5,8.5,0,0,0-3.547,14.225c.04.042.082.083.124.124s.086.088.13.13.084.085.127.127.082.083.124.124.084.085.126.126.084.085.128.128l.125.125c.042.043.085.086.128.128l.125.125.129.129c.04.041.082.082.123.122s.085.086.128.128.085.085.127.127.083.085.125.125.084.085.126.126l.128.128c.041.043.083.084.125.126l.127.127c.041.042.083.084.126.126s.084.085.127.127.083.085.125.125.084.085.127.127.083.083.125.125.086.087.13.129.082.084.125.125.085.086.128.128.083.085.126.126.083.085.126.126.084.085.126.127l.126.125.13.13c.04.041.081.082.122.122s.085.086.128.128.083.084.126.127.083.085.127.126.083.085.125.126.084.086.128.128.085.085.127.127l.125.125c.042.043.084.086.127.128l.127.127c.041.043.083.084.125.125l.126.126.129.129c.042.042.083.084.126.125s.083.084.126.126.084.086.127.127.084.085.127.127l.123.123.13.13.126.125c.042.042.083.085.126.126l.128.127c.041.042.083.085.126.125l.126.127c.041.042.083.084.126.125s.084.086.128.127.084.085.127.127.083.084.125.125.085.086.128.128.083.084.125.125.084.086.128.128l.127.127c.041.043.083.085.125.126l.125.124c.043.044.086.088.13.13s.082.083.124.124.084.086.128.127.083.085.126.126l.07.07A15.994,15.994,0,0,0,92.1,305.313l-.069-.07C91.989,305.2,91.949,305.158,91.9,305.117Z" transform="translate(-12.679 -11.238)" fill="#c1c5c9" style="mix-blend-mode: multiply;isolation: isolate"/>
    <g id="Group_3669" data-name="Group 3669" transform="translate(55.518 280.482)">
      <path id="Path_13584" data-name="Path 13584" d="M89.451,302.182c.54,0,.981-.589.981-1.308v-7.847c0-.719-.441-1.307-.981-1.307s-.981.588-.981,1.307v7.847C88.47,301.593,88.911,302.182,89.451,302.182Z" transform="translate(-80.95 -291.72)" fill="#fff"/>
      <path id="Path_13585" data-name="Path 13585" d="M79.1,297.242v2.073a6.54,6.54,0,1,1-4.8,0v-2.073a8.5,8.5,0,1,0,4.8,0Z" transform="translate(-68.197 -295.194)" fill="url(#linear-gradient)"/>
    </g>
  </g>
</svg>
