<svg xmlns="http://www.w3.org/2000/svg" xmlns:xlink="http://www.w3.org/1999/xlink" width="239.178" height="55.537" viewBox="0 0 239.178 55.537">
  <defs>
    <linearGradient id="linear-gradient" x1="0.45" y1="-0.959" x2="0.45" y2="0.714" gradientUnits="objectBoundingBox">
      <stop offset="0" stop-color="#2cd889"/>
      <stop offset="1" stop-color="#2cd889" stop-opacity="0"/>
    </linearGradient>
  </defs>
  <path id="oxgyn2" d="M1016.9,769.979s11.791,3.492,17.031,1.309c0,0,12.01-.436,18.342-17.023,0,0,10.134-21.7,15.721-5.238,0,0,1.208,23.762,18.342-13.16,0,0,15.259-25.3,27.512-2.619,0,0,10.635,47.508,30.133,31.332,0,0,12.844-14.249,34.063,7.857,0,0,15.208,10.94,22.272-3.929,0,0,6.011-14.891,11.791-22.262,0,0,10.525-11.487,18.342,20.953,0,0,4.471,14.1,21.656.439" transform="translate(-1015.035 -722.3)" stroke="#51cca9" stroke-linecap="round" stroke-width="3" stroke-dasharray="0 6" fill="url(#linear-gradient)"/>
</svg>
