<svg xmlns="http://www.w3.org/2000/svg" width="38.199" height="26.267" viewBox="0 0 38.199 26.267">
  <g id="Group_3363" data-name="Group 3363" transform="translate(-31 -134)">
    <g id="contacts_button" transform="translate(31 134)">
      <path id="Path_926" data-name="Path 926" d="M39.2,39.312v3.255H1V39.059a2.475,2.475,0,0,1,.893-1.914,40.424,40.424,0,0,1,7.293-4.7.226.226,0,0,0,.129-.207V29.825A5.7,5.7,0,0,1,8.6,27.876c-.273-.023-.628-.39-1.013-1.762-.526-1.859.031-2.136.507-2.089a4.884,4.884,0,0,1-.207-.78h0a5.457,5.457,0,0,1,0-2.448,5.328,5.328,0,0,1,1.43-2.506A6.88,6.88,0,0,1,10.643,17.2a5.149,5.149,0,0,1,1.271-.651h0a4.26,4.26,0,0,1,1.169-.222,4.814,4.814,0,0,1,2.951.635,3.644,3.644,0,0,1,1.427,1.329s2.37.168,1.559,4.985a4.9,4.9,0,0,1-.207.78c.472-.043,1.033.23.507,2.089-.39,1.36-.741,1.742-1.013,1.762a5.578,5.578,0,0,1-.709,1.918v2.448a.226.226,0,0,0,.129.207,40.262,40.262,0,0,1,3.609,2.039c1.169-.69,2.05-1.134,2.358-1.286a.21.21,0,0,0,.117-.191v-2.23a5.27,5.27,0,0,1-.659-1.8c-.249-.019-.581-.39-.939-1.629-.46-1.618-.027-1.949.39-1.949-.222-.947-.78-4.233,1.664-5.726a1.314,1.314,0,0,1-.468-1,18.624,18.624,0,0,0,4.139.039,2.766,2.766,0,0,1,3.032,1.8s2.728,0,1.676,4.888c.429,0,.893.277.421,1.949-.355,1.259-.686,1.61-.939,1.629a5.27,5.27,0,0,1-.659,1.8v2.191a.21.21,0,0,0,.117.191,37.419,37.419,0,0,1,6.794,4.342,2.292,2.292,0,0,1,.819,1.773Z" transform="translate(-1 -16.3)" fill="#005d8d"/>
    </g>
  </g>
</svg>
