<svg xmlns="http://www.w3.org/2000/svg" xmlns:xlink="http://www.w3.org/1999/xlink" width="38" height="26" viewBox="0 0 38 26">
  <defs>
    <clipPath id="clip-path">
      <rect id="Rectangle_2324" data-name="Rectangle 2324" width="38" height="26" transform="translate(29 284.261)" fill="#fff"/>
    </clipPath>
  </defs>
  <g id="Mask_Group_54" data-name="Mask Group 54" transform="translate(-29 -284.261)" clip-path="url(#clip-path)">
    <g id="user_2_" data-name="user (2)" transform="translate(36.559 284)">
      <g id="Group_3672" data-name="Group 3672" transform="translate(4.616)">
        <g id="Group_3671" data-name="Group 3671">
          <path id="Path_13586" data-name="Path 13586" d="M12.124,0a6.924,6.924,0,1,0,6.924,6.924A6.932,6.932,0,0,0,12.124,0Z" transform="translate(-5.199)" fill="#005d8d"/>
        </g>
      </g>
      <g id="Group_3674" data-name="Group 3674" transform="translate(0 15.388)">
        <g id="Group_3673" data-name="Group 3673">
          <path id="Path_13587" data-name="Path 13587" d="M21.488,15.876a9.871,9.871,0,0,0-7.077-2.985H11.334a9.871,9.871,0,0,0-7.077,2.985A10.091,10.091,0,0,0,1.332,23a.769.769,0,0,0,.769.769H23.644A.769.769,0,0,0,24.413,23,10.091,10.091,0,0,0,21.488,15.876Z" transform="translate(-1.332 -12.891)" fill="#005d8d"/>
        </g>
      </g>
    </g>
  </g>
</svg>
