<svg id="Group_3020" data-name="Group 3020" xmlns="http://www.w3.org/2000/svg" xmlns:xlink="http://www.w3.org/1999/xlink" width="32.251" height="32.251" viewBox="0 0 32.251 32.251">
  <defs>
    <clipPath id="clip-path">
      <rect id="Rectangle_2368" data-name="Rectangle 2368" width="21.827" height="20.735" transform="translate(-0.197 0.35)" fill="#bbbaba"/>
    </clipPath>
  </defs>
  <g id="Group_2664" data-name="Group 2664" transform="translate(0)">
    <path id="Path_8771" data-name="Path 8771" d="M16.126,0A16.126,16.126,0,1,1,0,16.126,16.126,16.126,0,0,1,16.126,0Z" transform="translate(0 0)" fill="#04957c"/>
  </g>
  <g id="Mask_Group_59" data-name="Mask Group 59" transform="translate(4.731 5.258)" clip-path="url(#clip-path)">
    <g id="exercise_1_" data-name="exercise (1)" transform="translate(1.384 -0.032)">
      <circle id="Ellipse_764" data-name="Ellipse 764" cx="1.463" cy="1.463" r="1.463" transform="translate(12.436 2.192)" fill="#e8c8b3"/>
      <path id="Path_13703" data-name="Path 13703" d="M10.984,4.345a2.411,2.411,0,0,1,1.7.706l2.22,2.22-.732,1.463L13.08,8,12.349,10.2H9.057L10.52,5.808,8.691,6.54V5.077l1.4-.559a2.411,2.411,0,0,1,.9-.172Z" transform="translate(0.454 -0.324)" fill="#e6e6e6"/>
      <path id="Path_13704" data-name="Path 13704" d="M15.9,11.7v.088a1.372,1.372,0,0,1-.262.807l-1.111,1.528-1.553,2.135-1.1-.732,1.358-2.264.836-1.394H10.775a1.463,1.463,0,0,1-1.463-1.463v-1.1h2.926l1.829.732.967.387A1.371,1.371,0,0,1,15.9,11.7Z" transform="translate(0.564 0.562)" fill="#e8c8b3"/>
      <path id="Path_13705" data-name="Path 13705" d="M11.916,11.65l-1.1,1.829-.593.889a1.457,1.457,0,0,1-.34.359L7.543,16.485,5.7,17.869l-.732-1.1,3.658-2.926L9.26,12.7l1.193-2.147Z" transform="translate(-0.211 0.783)" fill="#e8c8b3"/>
      <path id="Path_13706" data-name="Path 13706" d="M10.648,15.73a.486.486,0,0,0,.157.533l1.564,1.251h.255a.842.842,0,0,0,.7-1.309l-.59-.885-1.1-.732A1.974,1.974,0,0,0,10.648,15.73Z" transform="translate(0.799 1.504)" fill="#e4e4e2"/>
      <path id="Path_13707" data-name="Path 13707" d="M5.9,16.927v1.1l.2.781a.549.549,0,0,1-.532.682H4.8l-.732-1.1-.223-1.117a.95.95,0,0,1,.507-1.036l.814-.407Z" transform="translate(-0.414 1.725)" fill="#e4e4e2"/>
      <path id="Path_13708" data-name="Path 13708" d="M9.216,6.429l-2.56,1.2a.654.654,0,0,1-.523-1.2L9.216,4.966Z" transform="translate(-0.072 -0.214)" fill="#e8c8b3"/>
      <path id="Path_13709" data-name="Path 13709" d="M14.09,7.08,15.9,5.534A.786.786,0,0,1,16.93,6.726L14.8,8.643A1.028,1.028,0,0,1,13.39,8.6a.091.091,0,0,1-.017-.1l.694-1.388a.091.091,0,0,1,.023-.029Z" transform="translate(1.288 -0.145)" fill="#e8c8b3"/>
      <path id="Path_13710" data-name="Path 13710" d="M11.266,11.65l-1.1,1.829-1.463-.732-.1-.048L9.8,10.553Z" transform="translate(0.439 0.783)" fill="#f3af3e"/>
      <path id="Path_13711" data-name="Path 13711" d="M14.266,2.519l-.046.009a1.462,1.462,0,1,0-.867,1.205c0,.015,0,.031.006.046a1.1,1.1,0,1,0,.906-1.26Z" transform="translate(0.92 -0.933)" fill="#533222"/>
      <path id="Path_13712" data-name="Path 13712" d="M14.134,13.528l-1.553,2.135-1.1-.732,1.358-2.264Z" transform="translate(0.952 1.161)" fill="#da0010"/>
      <path id="Path_13713" data-name="Path 13713" d="M7.543,15.765,5.7,17.148l-.732-1.1L6.8,14.588l.732,1.1Z" transform="translate(-0.211 1.504)" fill="#da0010"/>
      <g id="Group_3899" data-name="Group 3899" transform="translate(0 8.41)">
        <path id="Path_13714" data-name="Path 13714" d="M7.416,10.974H5.953a.366.366,0,1,1,0-.732H7.416a.366.366,0,0,1,0,.732Z" transform="translate(-0.1 -7.682)" fill="#aedee2"/>
        <path id="Path_13715" data-name="Path 13715" d="M4.822,10.974H4.09a.366.366,0,0,1,0-.732h.732a.366.366,0,1,1,0,.732Z" transform="translate(-0.433 -7.682)" fill="#aedee2"/>
        <path id="Path_13716" data-name="Path 13716" d="M5.354,8.8H3.159a.366.366,0,0,1,0-.732H5.354a.366.366,0,0,1,0,.732Z" transform="translate(-0.599 -8.07)" fill="#aedee2"/>
        <path id="Path_13717" data-name="Path 13717" d="M2.028,8.8H1.3a.366.366,0,0,1,0-.732h.732a.366.366,0,0,1,0,.732Z" transform="translate(-0.931 -8.07)" fill="#aedee2"/>
        <path id="Path_13718" data-name="Path 13718" d="M5.975,12.836H3.78a.366.366,0,1,1,0-.732H5.975a.366.366,0,1,1,0,.732Z" transform="translate(-0.488 -7.35)" fill="#aedee2"/>
        <path id="Path_13719" data-name="Path 13719" d="M2.649,12.836H1.918a.366.366,0,1,1,0-.732h.732a.366.366,0,1,1,0,.732Z" transform="translate(-0.82 -7.35)" fill="#aedee2"/>
      </g>
      <path id="Path_13720" data-name="Path 13720" d="M14.067,10.043l-.732,1.829h-2.56a1.463,1.463,0,0,1-1.463-1.463v-1.1h2.926Z" transform="translate(0.564 0.562)" fill="#fbb540"/>
    </g>
  </g>
</svg>
