<svg xmlns="http://www.w3.org/2000/svg" xmlns:xlink="http://www.w3.org/1999/xlink" viewBox="0 0 458.22 420.63"><defs><clipPath id="clip-path" transform="translate(-23.25 -47.8)"><rect x="69.79" y="75.35" width="368.04" height="215.26" fill="none"/></clipPath></defs><g id="OBJECTS"><g opacity="0.5"><g opacity="0.5"><path d="M266.2,164c-19.88-3.4-38.73-12.78-55-27-24.3-21.25-75.13-57.4-123.63-39.4C20.69,122.41,20.4,194.27,37.82,233.3S178.79,386.64,339,368.45c143.33-16.28,171.27-202.57,94.82-236.28C367.49,102.93,344.87,177.43,266.2,164Z" transform="translate(-23.25 -47.8)" fill="#9ab8de"/></g><path d="M461.28,160.76c0-52.13-37-109.25-83.16-112.7l-2.45-.16c-66.1-3.61-71.14,90.84-130.94,101.49s-105.48-43.12-177-8C3.42,172.87-14,349.94,174.85,357,325.93,362.72,461.3,316.28,461.28,160.76Z" transform="translate(-23.25 -47.8)" fill="#9ab8de"/><circle cx="87.29" cy="357.5" r="11.99" transform="translate(-176.85 31.49) rotate(-27.17)" fill="#9ab8de"/><circle cx="134.31" cy="80.04" r="10.31" transform="translate(-42.72 60.5) rotate(-41.21)" fill="#9ab8de"/><g opacity="0.5"><path d="M432.48,351.32a10.31,10.31,0,1,1-12.16-8A10.32,10.32,0,0,1,432.48,351.32Z" transform="translate(-23.25 -47.8)" fill="#9ab8de"/></g><g opacity="0.5"><path d="M481.47,140.47a6.22,6.22,0,1,1-6.21-6.22A6.21,6.21,0,0,1,481.47,140.47Z" transform="translate(-23.25 -47.8)" fill="#9ab8de"/></g><path d="M115.09,72.58c5.07,6.65-2.45,14.17-9.1,9.1h0C100.92,75,108.44,67.51,115.09,72.58Z" transform="translate(-23.25 -47.8)" fill="#9ab8de"/><g opacity="0.5"><path d="M66.05,342.44a6.22,6.22,0,1,1-8.47-2.35A6.22,6.22,0,0,1,66.05,342.44Z" transform="translate(-23.25 -47.8)" fill="#9ab8de"/></g><path d="M448.78,341.76a6.22,6.22,0,1,1-7.34-4.84A6.22,6.22,0,0,1,448.78,341.76Z" transform="translate(-23.25 -47.8)" fill="#9ab8de"/></g><rect x="319.53" y="71.83" width="28.11" height="28.11" rx="4.59" transform="translate(643.92 123.98) rotate(180)" fill="#0592f5"/><rect x="321.44" y="71.83" width="28.11" height="28.11" rx="4.59" transform="translate(647.74 123.98) rotate(180)" fill="#1eb8ff"/><path d="M329.34,82.56a6,6,0,0,0,.85,3.26c.27.46.55.92.81,1.38l4.45,8L338.36,90c.78-1.39,1.62-2.75,2.43-4.12a6.16,6.16,0,0,0-5.71-9.28A6.19,6.19,0,0,0,329.34,82.56ZM332.9,82a2.6,2.6,0,1,1,2.6,2.6A2.59,2.59,0,0,1,332.9,82Z" transform="translate(-23.25 -47.8)" fill="#fff"/><rect x="335.46" y="24.21" width="28.11" height="28.11" rx="1.43" fill="#005ee1"/><rect x="337.37" y="24.21" width="28.11" height="28.11" rx="1.43" fill="#0592f5"/><path d="M365.45,86.07a9.23,9.23,0,1,0,9.23-9.24A9.24,9.24,0,0,0,365.45,86.07Zm5.18,3.41a12.55,12.55,0,0,1-.5-3.24h4.18v3.24Zm2.17,4.87a8.45,8.45,0,0,1-5.52-4.13h2.81a10.31,10.31,0,0,0,1.6,2.94A10.55,10.55,0,0,0,372.8,94.35Zm1.51-4.13v4.33a7.75,7.75,0,0,1-2.05-1.87,9.52,9.52,0,0,1-1.38-2.46Zm-3.23-8.7A11.65,11.65,0,0,1,374,77.6l.33,0v3.94Zm-3.57,0a8.58,8.58,0,0,1,5.17-3.71,12.59,12.59,0,0,0-1.16,1.44,11.67,11.67,0,0,0-1.25,2.27Zm2.63,4a10.54,10.54,0,0,1,.64-3.24h3.53V85.5Zm-3.93,0a8.32,8.32,0,0,1,.88-3.24H370a11.57,11.57,0,0,0-.59,3.24Zm3.18.74a13.55,13.55,0,0,0,.46,3.24h-3a8.43,8.43,0,0,1-.71-3.24Zm10.49,0h3.29a8.43,8.43,0,0,1-.71,3.24h-3A13.06,13.06,0,0,0,379.88,86.24Zm-4.83-4.72V77.58l.24,0a11.31,11.31,0,0,1,2.9,3.92Zm3.45.74a11,11,0,0,1,.64,3.24h-4.09V82.26Zm.5-.74a12.18,12.18,0,0,0-1.24-2.27,13.26,13.26,0,0,0-1.19-1.46,8.53,8.53,0,0,1,5.28,3.73Zm.14,4.72a12.41,12.41,0,0,1-.49,3.24h-3.6V86.24Zm.74-.74a11.24,11.24,0,0,0-.6-3.24h3a8.32,8.32,0,0,1,.88,3.24Zm2.2,4.72a8.53,8.53,0,0,1-5.64,4.15,8.76,8.76,0,0,0,1.14-1.21,10.33,10.33,0,0,0,1.61-2.94Zm-3.69,0a8.73,8.73,0,0,1-3.34,4.28V90.22Z" transform="translate(-23.25 -47.8)" fill="#fff"/><rect x="398.84" y="72.01" width="28.11" height="28.11" rx="4.59" transform="translate(802.54 124.33) rotate(180)" fill="#c83c39"/><rect x="400.75" y="72.01" width="28.11" height="28.11" rx="4.59" transform="translate(806.37 124.33) rotate(180)" fill="#fd615b"/><path d="M407.63,80.76c0-.18.09-.37.13-.55a4,4,0,0,1,.91-1.72,4.25,4.25,0,0,1,1.08-.91,1.23,1.23,0,0,1,1.62.32q1.13,1.35,2.22,2.7a1.28,1.28,0,0,1-.18,1.81c-.4.36-.82.69-1.23,1l-.17.1a11.88,11.88,0,0,0,5.07,6.18L418,89l.47-.38a1.26,1.26,0,0,1,1.54-.08,2.27,2.27,0,0,1,.42.4c.67.82,1.33,1.64,2,2.45a1.73,1.73,0,0,1,.39.87l0,.36a3,3,0,0,1-.36.6,4.87,4.87,0,0,1-1.35,1,3.87,3.87,0,0,1-1.89.38,7.11,7.11,0,0,1-1.3-.25,10.6,10.6,0,0,1-3-1.45,15.73,15.73,0,0,1-2.53-2.15,26.27,26.27,0,0,1-2.81-3.5,12.74,12.74,0,0,1-1.6-3.14,7.44,7.44,0,0,1-.35-1.75c0-.24,0-.48,0-.72S407.6,81,407.63,80.76Z" transform="translate(-23.25 -47.8)" fill="#fff"/><path d="M215.83,94.27a2.45,2.45,0,0,1-.8-.14l-10.29-3.69H170.28a5.58,5.58,0,0,1-5.57-5.57V65.8a5.58,5.58,0,0,1,5.57-5.57h38.25a5.58,5.58,0,0,1,5.57,5.57V81.06l3.89,10a2.33,2.33,0,0,1-2.16,3.17Zm-45.55-32a3.57,3.57,0,0,0-3.57,3.57V84.87a3.57,3.57,0,0,0,3.57,3.57h34.81l10.62,3.81a.32.32,0,0,0,.34-.08.32.32,0,0,0,.08-.35l-4-10.39V65.8a3.57,3.57,0,0,0-3.57-3.57Z" transform="translate(-23.25 -47.8)" fill="#9ab8de"/><path d="M199.1,80.18a4.31,4.31,0,1,1,4.31-4.3A4.31,4.31,0,0,1,199.1,80.18Zm0-6.61a2.31,2.31,0,1,0,2.31,2.31A2.31,2.31,0,0,0,199.1,73.57Z" transform="translate(-23.25 -47.8)" fill="#9ab8de"/><path d="M188.65,80.18a4.31,4.31,0,1,1,4.3-4.3A4.31,4.31,0,0,1,188.65,80.18Zm0-6.61a2.31,2.31,0,1,0,2.3,2.31A2.32,2.32,0,0,0,188.65,73.57Z" transform="translate(-23.25 -47.8)" fill="#9ab8de"/><path d="M178.19,80.18a4.31,4.31,0,1,1,4.3-4.3A4.31,4.31,0,0,1,178.19,80.18Zm0-6.61a2.31,2.31,0,1,0,2.3,2.31A2.31,2.31,0,0,0,178.19,73.57Z" transform="translate(-23.25 -47.8)" fill="#9ab8de"/><g opacity="0.5"><ellipse cx="229.23" cy="322.59" rx="124.92" ry="10.34" fill="#9ab8de"/></g><rect x="32.55" y="58.9" width="396.02" height="222.04" rx="11.46"/><path d="M451.82,290.6v26.68a11.46,11.46,0,0,1-11.46,11.46H67.26A11.46,11.46,0,0,1,55.8,317.28V290.6Z" transform="translate(-23.25 -47.8)" fill="#fff"/><g opacity="0.5"><rect x="203.41" y="256.5" width="54.31" height="10.73" rx="5.29" fill="#9ab8de"/></g><path d="M437.83,125.11v165.5h-368V125.11a4.42,4.42,0,0,1,4.43-4.41H433.41A4.41,4.41,0,0,1,437.83,125.11Z" transform="translate(-23.25 -47.8)" fill="#0592f5"/><g opacity="0.5"><path d="M437.83,211V275H422.14A2.17,2.17,0,0,1,420,272.8V213.22a2.17,2.17,0,0,1,2.17-2.18Z" transform="translate(-23.25 -47.8)" fill="#0051b6"/></g><rect x="46.45" y="227.86" width="368.1" height="14.93" fill="#0051b6"/><path d="M437.83,125.12v15.35h-368V125.12a4.43,4.43,0,0,1,4.43-4.43H433.41A4.42,4.42,0,0,1,437.83,125.12Z" transform="translate(-23.25 -47.8)" fill="#fff"/><path d="M378.36,134.69h-270a1.84,1.84,0,0,1-1.79-1.88v-4.46a1.84,1.84,0,0,1,1.79-1.88h270a1.83,1.83,0,0,1,1.79,1.88v4.46A1.83,1.83,0,0,1,378.36,134.69Z" transform="translate(-23.25 -47.8)" fill="#cedcec"/><polygon points="62.08 78.53 56.33 83.23 62.08 87.03 62.08 78.53" fill="#cedcec"/><polygon points="66.81 78.53 72.56 83.23 66.81 87.03 66.81 78.53" fill="#cedcec"/><path d="M412.71,130.58a4.12,4.12,0,1,1-4.11-4.11A4.11,4.11,0,0,1,412.71,130.58Z" transform="translate(-23.25 -47.8)" fill="#0051b6"/><path d="M400.25,130.58a4.11,4.11,0,1,1-4.11-4.11A4.11,4.11,0,0,1,400.25,130.58Z" transform="translate(-23.25 -47.8)" fill="#fd615b"/><path d="M425.17,130.58a4.12,4.12,0,1,1-4.12-4.11A4.12,4.12,0,0,1,425.17,130.58Z" transform="translate(-23.25 -47.8)"/><g clip-path="url(#clip-path)"><path d="M334.6,287.66c-16,0-26.86-4.28-33.07-13-14.9-20.92-30.15-68.66-31.84-74a16.23,16.23,0,1,1,31-9.74h0c4,12.84,16.42,48.47,26.38,63.57,1.61.44,6,1.23,15.09.33a116.52,116.52,0,0,0,13.18-2.07,16.24,16.24,0,0,1,7.34,31.63A147.72,147.72,0,0,1,341,287.45Q337.67,287.66,334.6,287.66Z" transform="translate(-23.25 -47.8)" fill="#fff"/><path d="M307.67,342.1c-7.65,7.14-19.06,13.07-32.34,16.86a119.31,119.31,0,0,1-33,4.5c-15.14,0-30.71-3-44.75-9.85-4.24-11.6-8.91-53-10.16-65.33-.25-2.46-.45-4.93-.61-7.39a321,321,0,0,1,0-36.32c0-.68.06-1.36.1-2,.5-10.28,1.25-20.95,2-32.27,1.41-22.42,8.89-36.22,21.89-38.29a52.93,52.93,0,0,0,14.35-4.33c.43-.2.83-.4,1.23-.61a40,40,0,0,0,6.56-4.06h29a22,22,0,0,0,9,7.54l1.13.52c10.29,4.44,22.29,3.56,24.77,16,1.55,7.79-4.42,23.82-3.79,56.32q.07,3.57.25,7.42c.11,2.39.27,4.88.46,7.45.17,2.38.39,4.85.64,7.38q.33,3.33.75,6.82t1,7.36C298,293.26,303.22,324.74,307.67,342.1Z" transform="translate(-23.25 -47.8)" fill="#fff"/><path d="M222.82,167.24s-8,1.54-11.16,4.58l4,18.65,9.5,5.31L217,198.1l2.86,39.39,13.32,10.7-3.77-66.86A38.9,38.9,0,0,0,222.82,167.24Z" transform="translate(-23.25 -47.8)" fill="#cedcec"/><path d="M272.8,170.54s7,.75,10.24,3.66l-3.26,14.48-6.49,6.83,5.45,2.42L278,237.18l-8.9,11.41-3-60.75S269.43,177.05,272.8,170.54Z" transform="translate(-23.25 -47.8)" fill="#cedcec"/><path d="M314.18,365.23q-1-3.57-2-7.2l-.41-1.52c-.33-1.21-.65-2.44-1-3.66l-.39-1.52c-4.06-15.57-7.74-31.8-10.52-47.86L275.33,359s.09,2.31.26,6.27Z" transform="translate(-23.25 -47.8)" fill="#fff"/><path d="M280.63,365.23c-3.74-61-6.16-124.24-6.2-125.26a.78.78,0,1,0-1.56.06c0,1,2.46,64.19,6.19,125.2Z" transform="translate(-23.25 -47.8)" fill="#cedcec"/><path d="M284.18,461.33a.79.79,0,0,1,0-1.57c.34,0,33.63-.59,57.06-12a.78.78,0,0,1,1,.36.79.79,0,0,1-.36,1.05c-23.75,11.53-57.39,12.12-57.73,12.13Z" transform="translate(-23.25 -47.8)" fill="#cedcec"/><path d="M275.33,359a119.31,119.31,0,0,1-33,4.5l-.1-.18s-6.17-61.68-7.16-84.2-7.05-95.71-7.1-96.34h0c.45-.49.91-1,1.35-1.41a43.51,43.51,0,0,0,7.63,9.92l12.27-16.67a1,1,0,0,1,.76-.38,1,1,0,0,1,.76.4l11.45,16.26,2.72-5c.71,1.19,1.07,2,1.07,2h0Z" transform="translate(-23.25 -47.8)" fill="#1eb8ff"/><path d="M295.59,257.83c-.91-17.09-.92-37.58-.92-37.85a.94.94,0,0,0-1.87,0c0,.27,0,20.71.92,37.85Z" transform="translate(-23.25 -47.8)" fill="#cedcec"/><path d="M258.63,333.9a2.19,2.19,0,0,1-4.36-.37,2.19,2.19,0,0,1,4.36.37Z" transform="translate(-23.25 -47.8)" fill="#005ee1"/><path d="M259.65,346.16a2.19,2.19,0,1,1-1.49-1.77A2.2,2.2,0,0,1,259.65,346.16Z" transform="translate(-23.25 -47.8)" fill="#005ee1"/><path d="M279.1,92.39s3.75,4.51,3.3,9.42c0,0,2.23,5.39,1.21,9.81a60.05,60.05,0,0,1-3.74,10s-2.12-21.46-6.88-22.91-10.47-5.5-10.47-5.5S265.52,87.7,279.1,92.39Z" transform="translate(-23.25 -47.8)"/><path d="M283.21,95.17s7.16,5.82,0,11.63S283.21,95.17,283.21,95.17Z" transform="translate(-23.25 -47.8)"/><path d="M226.59,106.31s-2.08,5.06.08,7.8-.72,6.75,2.24,9.45,8.14,1.57,8.14,1.57,3.38-26.39,5.95-28.7C243,96.43,234.21,95.82,226.59,106.31Z" transform="translate(-23.25 -47.8)"/><path d="M229.83,106.12s-3.49-10.07-1.75-14,7.17-4.07,7.17-4.07,2.52-10.07,14.53-9.69,33.72,7,40.89,1.55c0,0,2.32,18.8-7.56,19.77S240.38,93.13,229.83,106.12Z" transform="translate(-23.25 -47.8)"/><path d="M238,91.94h-.09a.35.35,0,0,1-.25-.42c0-.09,2.22-8.75,10.48-9.47,4.65-.41,9.84.41,14.86,1.2,5.81.92,11.82,1.86,17.08.94a.35.35,0,0,1,.4.28.35.35,0,0,1-.28.4c-5.37,1-11.44,0-17.31-.93-5-.79-10.12-1.6-14.69-1.2-7.76.68-9.85,8.86-9.87,8.94A.35.35,0,0,1,238,91.94Z" transform="translate(-23.25 -47.8)" fill="#434c56"/><path d="M263.54,156.68l-.59,7.63c-.95.65-2,1-2.85,1.68-15,12.11-27.38-4-27.38-4l2.06-26.44,25.33,18.64Z" transform="translate(-23.25 -47.8)" fill="#fcb88c"/><path d="M263.56,156.47l-.61,7.84A23.55,23.55,0,0,1,260.1,166c-10.93-5.34-18.21-17.81-18.21-17.81l18.22,6Z" transform="translate(-23.25 -47.8)"/><path d="M275.7,123.63s4.73-4.78,6.78.53-.64,15.52-7.1,13.31Z" transform="translate(-23.25 -47.8)" fill="#fd896a"/><path d="M278.92,141.93s-1.2,15.77-17.6,14.46-26.4-15-26.94-15.6v0l.08-3.32.41-17.27.22-9.24s-.8-16.71,15.17-18.51c11.66-1.31,22.29,1.44,27.27,7.86.16.2.31.42.46.63a14.13,14.13,0,0,1,2.49,8l-.77,16.55-.19,4.06Z" transform="translate(-23.25 -47.8)" fill="#fcb88c"/><path d="M265.85,128.32a.55.55,0,0,1-.45-.22.58.58,0,0,1,.08-.81l3.27-2.64-2.69-2.84a.56.56,0,0,1-.15-.37l-.26-6.54a.58.58,0,1,1,1.15,0l.25,6.31,3,3.14a.58.58,0,0,1,0,.85l-3.76,3A.57.57,0,0,1,265.85,128.32Z" transform="translate(-23.25 -47.8)"/><path d="M263.26,110.66a4.88,4.88,0,0,0-2.8-2c-1.85-.53-5.23-1.14-8.15.27-4.25,2.05-2,5.29,2.75,5.19s7.08-.17,8.31-1.44C263.91,112.08,263.68,111.33,263.26,110.66Z" transform="translate(-23.25 -47.8)"/><path d="M268.85,111a3.53,3.53,0,0,1,3-1.69c1.91-.24,5.35-.34,8,1.49,3.9,2.67,1.23,5.54-3.49,4.72s-6.34-.62-7.37-2A2.67,2.67,0,0,1,268.85,111Z" transform="translate(-23.25 -47.8)"/><path d="M258.15,125.79c-.09,1.15-2.53,1.89-5.44,1.67s-5.21-1.34-5.12-2.49,2.52-1.9,5.44-1.67S258.24,124.64,258.15,125.79Z" transform="translate(-23.25 -47.8)" fill="#fd896a"/><path d="M279.51,129.48a11.15,11.15,0,0,1-1.28,0c-2.91-.22-5.21-1.34-5.12-2.49s2.53-1.89,5.44-1.67c.4,0,.78.08,1.15.14Z" transform="translate(-23.25 -47.8)" fill="#fd896a"/><path d="M241.65,119.51s4.09,10.35,9.39,9,11.51-1.12,16.21,1.26c0,0,8.05-4.48,12.72-1,3.13,2.31.38,24.63-11,27.42s-26.23-2.17-29.55-12.92a62.31,62.31,0,0,1-2.8-19.8Z" transform="translate(-23.25 -47.8)"/><path d="M266.35,141.73a.53.53,0,0,0-.59-.39,9.21,9.21,0,0,1-4.45-.44.54.54,0,0,0-.71.3.55.55,0,0,0,.3.7,10.3,10.3,0,0,0,5,.51.54.54,0,0,0,.45-.68Z" transform="translate(-23.25 -47.8)" fill="#434c56"/><path d="M256,132.54a130.46,130.46,0,0,0,16.13,1,7.76,7.76,0,0,1-8.07,6.25C257.59,139.62,256,132.54,256,132.54Z" transform="translate(-23.25 -47.8)" fill="#fff"/><path d="M278,100.92c-2.51-1.11-4.43-.41-8.57,1-6,2.1-12.3-.7-17.8-4.07s-9.25.43-7.51,3.26,1.37,5-1.06,8.21,3.7,5.31,0,7.71c-1.55,1-1.59,2.7-1.12,4.32a2.36,2.36,0,0,1-2.9,2.91h0c-1.83-.61-4.2-4.12-4.2-4.12l.22-9.24s-.8-16.71,15.17-18.51c11.66-1.31,22.29,1.44,27.27,7.86C277.68,100.49,277.83,100.71,278,100.92Z" transform="translate(-23.25 -47.8)"/><path d="M273.88,97.72a76.46,76.46,0,0,1-15.16-1.82.34.34,0,0,1-.26-.42.35.35,0,0,1,.41-.26c.17,0,16.9,3.85,24.18.22,4.81-2.39,5.13-8.84,5.14-8.9a.35.35,0,0,1,.36-.33.33.33,0,0,1,.33.36c0,.28-.35,6.92-5.52,9.49C280.88,97.3,277.42,97.72,273.88,97.72Z" transform="translate(-23.25 -47.8)" fill="#434c56"/><path d="M257.4,120.35c-.13,1.58-.94,2.8-1.82,2.74s-1.5-1.41-1.38-3,.94-2.8,1.82-2.73S257.52,118.78,257.4,120.35Z" transform="translate(-23.25 -47.8)"/><path d="M273.26,121.35c-.13,1.57-.94,2.8-1.82,2.73s-1.5-1.4-1.38-3,.94-2.8,1.82-2.73S273.38,119.77,273.26,121.35Z" transform="translate(-23.25 -47.8)"/><path d="M240,134.79c-.08.17-2.53,4.82-5.63,6v0l.08-3.32A11.31,11.31,0,0,0,240,134.79Z" transform="translate(-23.25 -47.8)"/><path d="M238,123.62s-5.65-9-10.78-2.67c-4.23,5.19,1.85,20,9.76,15.73Z" transform="translate(-23.25 -47.8)" fill="#fcb88c"/><path d="M236.3,134.06a.64.64,0,0,1-.6-.62,10.87,10.87,0,0,0-5.62-9.23.65.65,0,0,1-.29-.87.66.66,0,0,1,.87-.3A12.2,12.2,0,0,1,237,133.4a.65.65,0,0,1-.63.67Z" transform="translate(-23.25 -47.8)"/><path d="M230.55,129.66a.61.61,0,0,1-.48-.28.64.64,0,0,1,.16-.9c.28-.19,2.75-1.84,4.65-1.19a.63.63,0,0,1,.41.82.65.65,0,0,1-.82.41c-1.1-.38-2.9.62-3.5,1A.64.64,0,0,1,230.55,129.66Z" transform="translate(-23.25 -47.8)"/><path d="M233.1,157.09a16.51,16.51,0,0,0-10.88,12.13c4.5,7.69,5.27,15.71,14.77,22,7-7.44,14.56-14.95,13-21.05C250,170.2,239.34,166.72,233.1,157.09Z" transform="translate(-23.25 -47.8)" fill="#1eb8ff"/><path d="M263.63,160.47s7.06,1.65,10.05,11.49a64.06,64.06,0,0,1-11.32,19.61l-12-15.5,0-5.87S257.39,170.1,263.63,160.47Z" transform="translate(-23.25 -47.8)" fill="#1eb8ff"/><polygon points="245.81 247.23 241.08 259.37 241.08 259.37 238.96 264.83 232.96 280.24 229.78 274.4 228.65 272.34 226.1 267.66 224.98 265.6 222.43 260.92 221.3 258.86 218.75 254.18 218.75 254.17 217.62 252.11 215.23 247.72 215.26 247.23 215.55 243.7 216.19 235.69 216.47 232.15 217.12 224.14 217.4 220.6 218.05 212.59 218.33 209.06 218.97 201.04 219.26 197.51 219.9 189.5 220.18 185.96 220.83 177.95 221.11 174.41 221.75 166.4 222.04 162.87 222.68 154.85 222.97 151.32 223.63 143.04 229.73 142.67 229.94 144.04 230.37 146.83 231.34 153.15 231.77 155.94 232.74 162.27 233.17 165.06 234.15 171.39 234.57 174.18 235.55 180.5 235.98 183.29 236.95 189.62 237.38 192.41 238.35 198.74 238.78 201.53 239.75 207.86 240.18 210.65 241.16 216.97 241.58 219.76 242.56 226.09 242.99 228.88 243.96 235.21 244.39 238 245.36 244.33 245.79 247.12 245.81 247.23"/><polygon points="218.63 137.46 226.78 149.57 234.59 137.46 226.78 127.34 218.63 137.46"/><path d="M274.11,172.38c-2.76,5.54-5.89,11.4-8.09,15.46-1.7,3.12-2.86,5.18-2.89,5.23a.94.94,0,0,1-.76.47.92.92,0,0,1-.81-.39L250,176.73l-12.1,16.43a1,1,0,0,1-.63.38h-.12a.93.93,0,0,1-.58-.2c-3.14-2.5-6.1-6.55-8.56-10.6h0a104.87,104.87,0,0,1-6.67-13.16.94.94,0,0,1,1.73-.71,105.37,105.37,0,0,0,6.29,12.46,43.51,43.51,0,0,0,7.63,9.92l12.27-16.67a1,1,0,0,1,.76-.38,1,1,0,0,1,.76.4l11.45,16.26,2.72-5c2.15-4,5-9.28,7.48-14.34a.93.93,0,0,1,1.25-.42A.94.94,0,0,1,274.11,172.38Z" transform="translate(-23.25 -47.8)" fill="#0592f5"/><path d="M250,176.07a.93.93,0,0,1-.93-.93V171a.94.94,0,0,1,1.87,0v4.18A.94.94,0,0,1,250,176.07Z" transform="translate(-23.25 -47.8)" fill="#0592f5"/><path d="M242.76,365.23,232.61,241.1l-45.15,47.18s2.63,41.81,3,77Z" transform="translate(-23.25 -47.8)" fill="#fff"/><path d="M234.72,468.43c-21.22,0-49.33-3.49-50.85-3.68a.78.78,0,0,1,.2-1.55c.47.06,47.77,5.93,66.17,2.66a.79.79,0,1,1,.27,1.55A97.15,97.15,0,0,1,234.72,468.43Z" transform="translate(-23.25 -47.8)" fill="#cedcec"/><path d="M239.73,365.23C235.63,314.61,229.1,241,229,240a.78.78,0,0,0-1.56.14c.09,1,6.61,74.53,10.71,125.13Z" transform="translate(-23.25 -47.8)" fill="#cedcec"/><path d="M288.69,232.19s2.63-8.95,9.4-11.22,10.49-2.17,13-.55a6.91,6.91,0,0,1,2.81,7.09C313.3,229.49,288.69,232.19,288.69,232.19Z" transform="translate(-23.25 -47.8)" fill="#fcb88c"/><path d="M299.93,240.29a16.24,16.24,0,0,0-21.51-8l-.29.14-2.2,1-2.3,1-4.67,2c-3.12,1.33-6.27,2.63-9.42,3.9-6.31,2.51-12.65,4.88-19,7q-4.74,1.59-9.43,3c-3.13.9-6.23,1.71-9.25,2.38-.76.18-1.51.32-2.26.48s-1.48.3-2.2.41c-1.46.27-2.87.46-4.23.62-1,.12-1.9.19-2.77.23.06-2.1.25-4.47.52-6.89.34-3.07.81-6.27,1.36-9.5.67-4,1.45-8,2.31-12-2.81-16.28-3.23-32.9-5.78-49.23a17.52,17.52,0,0,0-21.28,12.55l-.72,2.76-.68,2.67-1.3,5.32c-.84,3.54-1.66,7.1-2.43,10.68-1.54,7.16-2.95,14.37-4.1,21.83-.57,3.74-1.07,7.53-1.45,11.47-.09,1-.19,2-.26,3s-.15,2-.19,3.07-.11,2.07-.11,3.19l0,1.64c0,.27,0,.55,0,.85l0,.87,0,1.74.13,1.88.07.94c0,.31.08.68.12,1l.28,2.08c.14.77.31,1.59.49,2.38l0,.2.09.4.07.3.1.35c.14.48.29,1,.44,1.44s.32.95.48,1.42l.06.18.09.22.2.46c.13.3.27.61.41.91l.43.9.23.44.26.45c.35.59.71,1.18,1.09,1.75a19.47,19.47,0,0,0,1.23,1.64c.44.52.88,1.06,1.35,1.54s.94.92,1.43,1.37c.24.22.49.45.74.65l.73.57c.5.38,1,.74,1.51,1.09s1,.61,1.48.9a28,28,0,0,0,2.9,1.45c.5.23.93.38,1.38.55l.4.14,1,.34c.86.26,1.7.49,2.54.71s1.59.34,2.37.48,1.48.22,2.22.31a51.48,51.48,0,0,0,7.8.26q3.57-.15,6.78-.58c2.15-.28,4.23-.61,6.23-1s4-.81,5.9-1.27c3.85-.91,7.56-1.95,11.2-3.06s7.2-2.29,10.71-3.53c7-2.47,13.87-5.15,20.63-8,3.37-1.42,6.73-2.86,10.06-4.35,1.68-.75,3.34-1.5,5-2.27l2.51-1.16,2.59-1.24A16.24,16.24,0,0,0,299.93,240.29Z" transform="translate(-23.25 -47.8)" fill="#fff"/><path d="M194.62,286l-.4-.14c-.45-.17-.88-.32-1.38-.55a28,28,0,0,1-2.9-1.45c-.5-.29-1-.59-1.48-.9s-1-.71-1.51-1.09l-.73-.57c-.25-.2-.5-.43-.74-.65-.49-.45-1-.9-1.43-1.37s-.91-1-1.35-1.54a19.47,19.47,0,0,1-1.23-1.64c-.38-.57-.74-1.16-1.09-1.75l-.26-.45-.23-.44-.43-.9c-.14-.3-.28-.61-.41-.91l-.2-.46-.09-.22-.06-.18c-.16-.47-.33-.94-.48-1.42s-.3-1-.44-1.44l-.1-.35-.07-.3-.09-.4a16.26,16.26,0,0,1,11.85,3.43C194.86,274.39,195.15,281.4,194.62,286Z" transform="translate(-23.25 -47.8)" fill="#cedcec"/><path d="M271.38,260.82a.82.82,0,0,1-.8-.62.83.83,0,0,1,.6-1A55.18,55.18,0,0,0,287,251.88a.82.82,0,0,1,1.14.22.81.81,0,0,1-.22,1.13,55.74,55.74,0,0,1-16.34,7.57A.62.62,0,0,1,271.38,260.82Z" transform="translate(-23.25 -47.8)" fill="#cedcec"/><circle cx="252.43" cy="192.14" r="1.81" fill="#cedcec"/><path d="M196.57,264.7a1,1,0,0,1-.66-.26,1,1,0,0,1-.06-1.39c.29-.31,7.18-7.68,14.34-9.58a1,1,0,0,1,.5,1.89c-6.61,1.75-13.33,8.95-13.4,9A1,1,0,0,1,196.57,264.7Z" transform="translate(-23.25 -47.8)" fill="#cedcec"/><path d="M209.77,255.59a1.06,1.06,0,0,1-.51-.14,31.65,31.65,0,0,0-6.77-2.52A1,1,0,0,1,203,251a34.05,34.05,0,0,1,7.31,2.74,1,1,0,0,1,.33,1.35A1,1,0,0,1,209.77,255.59Z" transform="translate(-23.25 -47.8)" fill="#cedcec"/><path d="M210.44,255.39a1,1,0,0,1-1-1c0-15.11,5.08-37.13,5.13-37.35a1,1,0,0,1,1.91.44c-.05.22-5.08,22-5.08,36.91A1,1,0,0,1,210.44,255.39Z" transform="translate(-23.25 -47.8)" fill="#cedcec"/><path d="M209.14,290.67c-1.06,0-2.12,0-3.18-.13-13.48-1.11-18-5.1-18.16-5.27a1,1,0,0,1,1.32-1.45c.07.07,4.36,3.73,17,4.77,12.91,1.07,27.75-5.43,27.9-5.5a1,1,0,1,1,.79,1.79C234.24,285.14,221.6,290.67,209.14,290.67Z" transform="translate(-23.25 -47.8)" fill="#cedcec"/><path d="M321.42,246.2a2.36,2.36,0,0,1-1.8-1.14l-21.15-35.32a2.38,2.38,0,0,1,4.09-2.44l21.15,35.31a2.38,2.38,0,0,1-.82,3.27A2.36,2.36,0,0,1,321.42,246.2Z" transform="translate(-23.25 -47.8)" fill="#fd615b"/><path d="M311.78,252.55c-6.5.72-10.23.55-19.08,2.71s-17.83-14.44-9.95-22.45a27.49,27.49,0,0,1,5.11-6.23c2.65-2.09,16.37-6.22,20.4-6.08,3.41.12,8.51,0,10.67,1.54,5.47,3.87-3.55,6.89-3.55,6.89s3.81.07,4.37,3.18-1.62,3.61-1.62,3.61a7.55,7.55,0,0,1,2.57,3c1.11,2.17-1.45,4.25-1.45,4.25s2.94,1.39,2.25,3.87C320.37,250.87,311.78,252.55,311.78,252.55Z" transform="translate(-23.25 -47.8)" fill="#fcb88c"/><path d="M309.09,230.65a.41.41,0,0,1,0-.82,23,23,0,0,0,6.16-1.28.41.41,0,1,1,.29.77,24,24,0,0,1-6.41,1.33Z" transform="translate(-23.25 -47.8)" fill="#fd896a"/><path d="M312.23,237.58a.41.41,0,0,1,0-.81,20.69,20.69,0,0,0,5.1-1.29.4.4,0,0,1,.28.76,20.41,20.41,0,0,1-5.32,1.34Z" transform="translate(-23.25 -47.8)" fill="#fd896a"/><path d="M313.38,244.9h0a.41.41,0,1,1,0-.82h0a11.57,11.57,0,0,0,5-1.34.41.41,0,1,1,.39.73A12.45,12.45,0,0,1,313.38,244.9Z" transform="translate(-23.25 -47.8)" fill="#fd896a"/><path d="M352.82,298.51l36.66-78.82c.62-1.33,0-2.41-1.29-2.4l-55.55.28A4.38,4.38,0,0,0,329.1,220l-36.66,78.83c-.62,1.33,0,2.4,1.29,2.4l55.55-.28A4.38,4.38,0,0,0,352.82,298.51Z" transform="translate(-23.25 -47.8)" fill="#434c56"/><path d="M359.51,298.51l36.67-78.82c.62-1.33,0-2.41-1.3-2.4l-55.55.28a4.39,4.39,0,0,0-3.54,2.42l-36.66,78.83c-.62,1.33,0,2.4,1.3,2.4l55.54-.28A4.37,4.37,0,0,0,359.51,298.51Z" transform="translate(-23.25 -47.8)"/><path d="M383.12,247.77l1.43-3.23s2.73,6.18-.44,11.57-6.1,12.53-7.63,15.9-3.31,10.93-6,12.25-5.29.45-9.37-2.07-2.7-5.08.08-5.45a37,37,0,0,1,7.21.05,49.74,49.74,0,0,0-6.65-3.48c-5.62-2.64-3.2-5.8,0-6a69.69,69.69,0,0,1,11.43,1s-6-2.6-10-4.26-.71-5.89,6-4.22,6.85.66,6.85.66-1.51-1.32-6.36-3.12-6.64-5.33-3.35-6,13.24,2.72,13.24,2.72l1.5-2.69A22.67,22.67,0,0,0,383.12,247.77Z" transform="translate(-23.25 -47.8)" fill="#fcb88c"/><path d="M357.45,259.1c-1.88,4.08-6.71,7.39-10.8,7.39s-5.87-3.31-4-7.39,6.71-7.4,10.8-7.4S359.33,255,357.45,259.1Z" transform="translate(-23.25 -47.8)" fill="#434c56"/><path d="M232,236.67a10.6,10.6,0,1,1-10.6-10.6A10.6,10.6,0,0,1,232,236.67Z" transform="translate(-23.25 -47.8)"/><path d="M227.11,236.67a5.76,5.76,0,1,1-5.76-5.76A5.76,5.76,0,0,1,227.11,236.67Z" transform="translate(-23.25 -47.8)" fill="#434c56"/><path d="M277.11,211.87a10.36,10.36,0,0,0-10.36,10.35V236.9a1.48,1.48,0,0,0,.07.42l2.25-.88.05,0,.14-.06V222.22a7.85,7.85,0,1,1,15.7,0v7.3c.81-.84,1.63-1.69,2.5-2.47v-4.83A10.36,10.36,0,0,0,277.11,211.87Z" transform="translate(-23.25 -47.8)"/><path d="M268,234a2.88,2.88,0,0,0-2.88,2.89,2.76,2.76,0,0,0,.21,1c1.23-.53,2.49-1,3.74-1.5l.06,0,.83-.4a.36.36,0,0,1,.19-.05l.47-.27A2.88,2.88,0,0,0,268,234Z" transform="translate(-23.25 -47.8)" fill="#434c56"/><path d="M233.24,155.69c-4.88,1.5-8.84,4-11.28,7.16-5.24,6.88-7.49,19.86-6.69,38.58A216.32,216.32,0,0,0,218,227.36a1.23,1.23,0,0,0,1.22,1l.22,0a1.24,1.24,0,0,0,1-1.44c-.09-.47-8.25-47.15,3.49-62.57a19.15,19.15,0,0,1,9.29-6.06C233.24,157.42,233.25,156.55,233.24,155.69Z" transform="translate(-23.25 -47.8)"/><path d="M280.29,195.72c-.18-12.93-2.34-22.67-6.41-28.95a25.6,25.6,0,0,0-10.54-8.84c.07,1-.18,1.61-.15,2.57a24.12,24.12,0,0,1,8.6,7.63c9.15,14.1,5.14,44.43,5.09,44.74a1.25,1.25,0,0,0,2.47.33A131.74,131.74,0,0,0,280.29,195.72Z" transform="translate(-23.25 -47.8)"/></g><path d="M279.31,267.61a.93.93,0,0,1-1.27.49c-5.5-2.65-9.25-8.75-10.87-17.73a60.58,60.58,0,0,1-.84-12.56.92.92,0,0,1,1-.88h0a.92.92,0,0,1,.85.95c-.16,4.34-.23,23.33,10.66,28.55a.92.92,0,0,1,.47,1.18Z" transform="translate(-23.25 -47.8)" fill="#cedcec"/><path d="M164.94,307.29H297a15.92,15.92,0,0,1,15.92,15.92v1.88a0,0,0,0,1,0,0H149a0,0,0,0,1,0,0v-1.88A15.92,15.92,0,0,1,164.94,307.29Z" fill="#fff"/><rect x="200.81" y="280.94" width="59.42" height="26.36" fill="#fff"/><g opacity="0.5"><polygon points="260.23 287.4 200.81 297.9 200.81 280.94 260.23 280.94 260.23 287.4" fill="#9ab8de"/></g><path d="M92.7,267.76l-9.36-16.21a.88.88,0,0,1,0-.86l9.36-16.22a.89.89,0,0,1,.75-.43h18.72a.89.89,0,0,1,.75.43l9.36,16.22a.88.88,0,0,1,0,.86l-9.36,16.21a.86.86,0,0,1-.75.43H93.45A.86.86,0,0,1,92.7,267.76Z" transform="translate(-23.25 -47.8)" fill="#1eb8ff"/><path d="M113.55,247.33a1.4,1.4,0,0,0-1-1,.79.79,0,0,0,.24-.34,5.31,5.31,0,0,1,1.78,2.53,1.59,1.59,0,0,1,.07.2l0,0h0a.56.56,0,0,1-.31-.11A1.89,1.89,0,0,1,113.55,247.33Z" transform="translate(-23.25 -47.8)" fill="#fff"/><path d="M90.72,252.74h0a7.62,7.62,0,0,0,.09,1.15,5.56,5.56,0,0,0,.13.64.94.94,0,0,0,0,.16.94.94,0,0,1,0-.16,2.37,2.37,0,0,0,2.12-.77.2.2,0,0,1,.27,0,.2.2,0,0,1,0,.28,2.82,2.82,0,0,1-2,.94h-.28c0-.06,0-.12,0-.18s0,.12,0,.18a5.36,5.36,0,0,0,.24.6l.18.34a3.24,3.24,0,0,0,2.6,1.58,6.06,6.06,0,0,0,2.87,2.45l.13,0a.87.87,0,0,0,.15-.25,3.1,3.1,0,0,1,.28-.51,2.3,2.3,0,0,1,2.2-.84c.4,0,.65-.26.89-.55a1.4,1.4,0,0,1,.43-.39,1.25,1.25,0,0,1,.72,0c.38.07.64.1.72-.07.31-.62,1.23-.54,1.27-.54a.19.19,0,0,1,.18.21.21.21,0,0,1-.1.15.14.14,0,0,1-.11,0s-.7,0-.89.34-.75.34-1.14.27a1.19,1.19,0,0,0-.48,0,1.3,1.3,0,0,0-.3.29,1.4,1.4,0,0,1-1.23.68,2,2,0,0,0-1.84.68,3.19,3.19,0,0,0-.25.45,1.14,1.14,0,0,1-.1.19,2.61,2.61,0,0,0,2.13-.27,1.82,1.82,0,0,0,1.16,0c.5-.23.44-1,.42-1.11l3.35.75h0a.18.18,0,0,1,.14,0,2.72,2.72,0,0,0,2.69-1.52h0a2.86,2.86,0,0,0-1.86-.9.19.19,0,0,1,.08-.38,3.69,3.69,0,0,1,1.94.87,3,3,0,0,0,.1-.43,2.1,2.1,0,0,0-.74-1.87.19.19,0,1,1,.24-.3,2.51,2.51,0,0,1,.88,2.23,3.14,3.14,0,0,1-.24.83h0v0a3.28,3.28,0,0,1-.73,1,3,3,0,0,1-.93.58h0a5.92,5.92,0,0,1-1.19-.05,6.61,6.61,0,0,0,1.19.06,5.29,5.29,0,0,0,1.13-.18,3.9,3.9,0,0,0,1.15-.51,2.86,2.86,0,0,0,1-3.24h0a.18.18,0,0,1-.15-.13s-.54-1.54-1.49-1.63a2.54,2.54,0,0,0-1,.17,1.49,1.49,0,0,1-1.68-.21,7.79,7.79,0,0,1-.8-.84,2.93,2.93,0,0,0-1.58-1.17h0a1.15,1.15,0,0,1-.28.09,4.3,4.3,0,0,1-.73.07,1.62,1.62,0,0,1-1-.3,1.56,1.56,0,0,1-.53-1.17c0-.33,0-.62,0-.88,0-.78,0-1.1-.32-1.26a.19.19,0,0,1,.19-.33c.47.27.49.76.52,1.58,0,.25,0,.53,0,.86a1.17,1.17,0,0,0,.39.89,2,2,0,0,0,1.46.16l.1,0a.19.19,0,0,1,.17-.09c.5-.36.5-1.39.5-1.4a.19.19,0,0,1,.19-.2.19.19,0,0,1,.19.19,2.62,2.62,0,0,1-.44,1.53h0a3.5,3.5,0,0,1,1.5,1.21,8.08,8.08,0,0,0,.76.79,1.13,1.13,0,0,0,1.31.15,2.64,2.64,0,0,1,1.17-.19c1.16.1,1.76,1.7,1.82,1.87h.36a5,5,0,0,0,4-2,4,4,0,0,1-1.09.18,2.22,2.22,0,0,1-.51-.06c-.6-.13-.81-.6-1-1a1.84,1.84,0,0,0-.32-.57.83.83,0,0,0-.27-.17,8.51,8.51,0,0,0-.9-.22c-1-.24-2.37-.53-2.63-1.25a.19.19,0,0,1,.11-.25.18.18,0,0,1,.25.12c.19.52,1.5.81,2.36,1a7,7,0,0,1,.94.24,1,1,0,0,1,.39.23.93.93,0,0,0,.8-.08.65.65,0,0,0,.35-.58.87.87,0,0,1,.27-.68,1.08,1.08,0,0,1,.74-.26.19.19,0,0,1,.19.2.21.21,0,0,1-.21.19.77.77,0,0,0-.32.06,2.46,2.46,0,0,1,1.28,1.41.2.2,0,0,1-.12.24h-.06a.19.19,0,0,1-.18-.13,2.08,2.08,0,0,0-1.18-1.22,1,1,0,0,0,0,.18,1,1,0,0,1-.55.92,1.51,1.51,0,0,1-.68.19h0l.12.26c.17.38.31.7.73.8a3.49,3.49,0,0,0,1.85-.28h0a4.88,4.88,0,0,0,.46-3.63c0-.1-.06-.19-.09-.29l.09.29h0a1,1,0,0,1-.63-.16,2.33,2.33,0,0,1-.93-1.56c-.1-.64-1-.8-1.19-.83h0l-.13,0a2.2,2.2,0,0,1-.89,0h-.12a1.76,1.76,0,0,1,1,1,1.09,1.09,0,0,1-.25,1,1,1,0,0,1-.88.27,1.56,1.56,0,0,0-1,.07.45.45,0,0,0-.2.31.19.19,0,0,1-.19.16h0a.19.19,0,0,1-.16-.22.82.82,0,0,1,.36-.56,1.81,1.81,0,0,1,1.33-.13.58.58,0,0,0,.53-.16.71.71,0,0,0,.15-.68c-.11-.48-1-.84-1.42-1h0a1.23,1.23,0,0,0-.27.25.19.19,0,0,1-.15.07.24.24,0,0,1-.13,0,.19.19,0,0,1,0-.27,1.58,1.58,0,0,1,.43-.37h0a1.4,1.4,0,0,1,.73-.14,1.75,1.75,0,0,0-1-1,3.94,3.94,0,0,0-1.56-.39.2.2,0,0,1,0-.39,4.24,4.24,0,0,1,1.74.42l.11.05h0a1.45,1.45,0,0,0-.6-1.5,6.9,6.9,0,0,1,.86.45,1.61,1.61,0,0,1,.08,1.25h0a2.12,2.12,0,0,1,.82,1.19h0a1.73,1.73,0,0,0,.64,0c.45-.09.59-.3.63-.42h0a5.74,5.74,0,0,0-2.13-2h0a6.9,6.9,0,0,0-.86-.45,10.2,10.2,0,0,0-1.81-.65.73.73,0,0,1,.1.52.35.35,0,0,1-.25.22,1.8,1.8,0,0,1-.55,0c-.58,0-1.46-.08-1.82.48a.19.19,0,0,1-.16.1.17.17,0,0,1-.1,0,.2.2,0,0,1-.06-.27c.47-.75,1.53-.7,2.16-.67h.41a1.48,1.48,0,0,0-.26-.5l.53.13h0l-.53-.13h0a15.44,15.44,0,0,0-4.94-.27h0c-.06.27-.09.6,0,.7h0c.24.24.32.32,1.21.33a.73.73,0,0,1,.56.22,1.2,1.2,0,0,1,.16.93,1.37,1.37,0,0,0,.07.77.31.31,0,0,0,.33.19.84.84,0,0,0,.57-.67c.19-.85,1.35-.84,1.4-.84a.2.2,0,0,1,.19.2.19.19,0,0,1-.2.19h0s-.89,0-1,.53a1.25,1.25,0,0,1-.89,1h-.11a.72.72,0,0,1-.62-.39,1.8,1.8,0,0,1-.12-1c0-.26,0-.53,0-.64a.36.36,0,0,0-.28-.09c-1,0-1.18-.14-1.48-.45h0a1.11,1.11,0,0,1-.13-.93l.34,0-.34,0a12.72,12.72,0,0,0-1.59.3,1.14,1.14,0,0,1,.81,1.16,2.08,2.08,0,0,0,0,.6s.12.07.26.12l.06,0,.1,0c.65.2,2.63.83,2.28,2a5.73,5.73,0,0,1-.22.64,2.14,2.14,0,0,0-.1.33.85.85,0,0,0,.21.05,3.39,3.39,0,0,1,1.47.72,2.68,2.68,0,0,1,.86,2.34.19.19,0,0,1-.19.18h0a.19.19,0,0,1-.17-.21,2.38,2.38,0,0,0-2-2.64.65.65,0,0,1-.48-.25c-.09-.17,0-.35.09-.65s.13-.36.21-.62c.16-.53-.52-1-2-1.52l-.1,0-.06,0c-.23-.08-.41-.14-.5-.34a1.73,1.73,0,0,1,0-.81c.1-.62-1-.9-1-.91a.15.15,0,0,1-.07,0h0a6.73,6.73,0,0,0-1.54.23,6.43,6.43,0,0,0-2.4,1.18,4.33,4.33,0,0,0,1.43-.26c.74-.25,1.23-.36,1.58-.18a.89.89,0,0,1,.41.59.2.2,0,0,1-.38.1c-.06-.24-.15-.31-.21-.34-.22-.12-.67,0-1.27.2a5,5,0,0,1-1.63.28H95a5.22,5.22,0,0,0-1,1.29h0a1.71,1.71,0,0,1,1.32-.06,1,1,0,0,1,.49.69v.07h0a3,3,0,0,1,2.72-1.12c1.73.17,3.43,2.76,3.87,3.47a1.16,1.16,0,0,1,.24-.2,1.51,1.51,0,0,1,1.12-.14.2.2,0,0,1,.13.25.19.19,0,0,1-.25.12,1,1,0,0,0-.79.1,1.54,1.54,0,0,0-.61,1.1.2.2,0,0,1-.19.17h0a.19.19,0,0,1-.16-.22,2.67,2.67,0,0,1,.28-.84c-.22-.37-2-3.25-3.65-3.42a2.64,2.64,0,0,0-2.45,1.08,1,1,0,0,0,.39.1,1.21,1.21,0,0,1,.89.37c.29.35.24.91.16,1.76,0,.08,0,.16,0,.25a4.92,4.92,0,0,0,.22,1.62c0,.18.09.35.12.52a4.09,4.09,0,0,0,2.09,2.26,7.64,7.64,0,0,0,1.66.32,3.41,3.41,0,0,1,1.86.58.19.19,0,0,1,0,.27.18.18,0,0,1-.15.08.28.28,0,0,1-.12,0,3.1,3.1,0,0,0-1.66-.5,8,8,0,0,1-1.74-.34,2.61,2.61,0,0,1-.63-.3,1.41,1.41,0,0,0-.09.74,4.39,4.39,0,0,0,1.59.68.19.19,0,0,1,0,.38h0a4.37,4.37,0,0,1-1.83-.83c-.14-.14-.6-.06-1,0a6.1,6.1,0,0,1-1.43.11c-.09.32-.31,1-.78,1.17h-.08a.21.21,0,0,1-.18-.12.19.19,0,0,1,.11-.25c.27-.12.46-.58.54-.88a1.76,1.76,0,0,1-.72-.39.19.19,0,1,1,.25-.29,1.52,1.52,0,0,0,.74.34h0a5,5,0,0,0,1.48-.08,3.38,3.38,0,0,1,1-.08,1.87,1.87,0,0,1,.18-.75,4.37,4.37,0,0,1-1-1.15h0a1.18,1.18,0,0,1-.37.64,1.56,1.56,0,0,1-1.07.36,2.7,2.7,0,0,1-1-.19,1.9,1.9,0,0,1-1.31-1.43v-.15a2.25,2.25,0,0,0-.17-1,.27.27,0,0,0-.2,0,.2.2,0,0,1-.23-.16.18.18,0,0,1,.15-.22.59.59,0,0,1,.51.07c.25.19.28.57.33,1.33v.14a1.53,1.53,0,0,0,1.06,1.1,1.62,1.62,0,0,0,1.65-.1c.4-.37.29-.9.08-1.72a5.52,5.52,0,0,1-.23-1.76l0-.25c.06-.75.11-1.24-.08-1.48a.91.91,0,0,0-.63-.22,1.09,1.09,0,0,1-.74-.31h0a1.05,1.05,0,0,1-.21-.46c-.06-.22-.1-.35-.28-.44-.54-.26-1.33.23-1.34.23a.21.21,0,0,1-.15,0,9.81,9.81,0,0,0-2.18,2.92l-.12.26.12-.26s0,0,0,.07.09,1,.56,1h0c.23,0,.3-.36.39-.87a2.29,2.29,0,0,1,.4-1.14,2.26,2.26,0,0,1,2.79-.52.2.2,0,0,1,.1.26.2.2,0,0,1-.25.1,1.88,1.88,0,0,0-2.35.41h0a1,1,0,0,1,1,.25,1.8,1.8,0,0,1,.37.67c.22.53.4.88.84.88a.38.38,0,0,0,.32-.12,1.2,1.2,0,0,0,0-.83.19.19,0,0,1,.37-.11,1.45,1.45,0,0,1-.09,1.17.73.73,0,0,1-.62.28h0c-.72,0-1-.65-1.18-1.13a1.82,1.82,0,0,0-.29-.53c-.11-.1-.43-.41-1,.05,0,.12,0,.25-.07.37-.09.54-.19,1.16-.74,1.19h-.06c-.46,0-.72-.41-.84-.83-.08.19-.14.38-.21.58h0a8,8,0,0,0-.32,1.76.81.81,0,0,0,0,.16.81.81,0,0,1,0-.16,1.44,1.44,0,0,0,1,.34,4.11,4.11,0,0,0,1.33-.27.19.19,0,0,1,.25.1.2.2,0,0,1-.1.26,4.26,4.26,0,0,1-1.47.3A2,2,0,0,1,90.72,252.74Zm14.82-5.46a.18.18,0,0,1,.06-.26.2.2,0,0,1,.27.06.83.83,0,0,0,.47.36.48.48,0,0,0,.4-.14c.42-.36.33-1.76.17-2.55a.19.19,0,1,1,.38-.08c0,.24.43,2.3-.3,2.92h0a1.51,1.51,0,0,0,1,.41c.41,0,.74-.72.83-1a.21.21,0,0,1,.25-.12.19.19,0,0,1,.11.25c0,.12-.43,1.14-1.14,1.23h-.12a2.13,2.13,0,0,1-1.26-.6.85.85,0,0,1-.22,0h-.12A1.24,1.24,0,0,1,105.54,247.28Zm-8.85,8.2a3.26,3.26,0,0,1,2.07.39,8.47,8.47,0,0,0,1.45.5,3.11,3.11,0,0,0,2.55-1,.19.19,0,0,1,.27,0,.2.2,0,0,1,0,.28,3.7,3.7,0,0,1-2.39,1.12,2.29,2.29,0,0,1-.52-.05,8.88,8.88,0,0,1-1.54-.53h0a1.51,1.51,0,0,0-1,.46.17.17,0,0,1-.14.07.19.19,0,0,1-.15-.32A2.2,2.2,0,0,1,98,256a2.06,2.06,0,0,0-1.2-.11.19.19,0,0,1-.08-.38Zm-3.24.52c.41,0,.55-.73.56-.74a.19.19,0,1,1,.38.07,1.48,1.48,0,0,1-.51.92h0a1.56,1.56,0,0,0,1.12,0,.2.2,0,0,1,.24.13.19.19,0,0,1-.14.24,2.66,2.66,0,0,1-.69.11,2,2,0,0,1-1.13-.4h0l-.43-.3h0a1.47,1.47,0,0,0-1.36-.17,3.72,3.72,0,0,1-.19-.34,1.9,1.9,0,0,1,1.78.2h0A3.62,3.62,0,0,0,93.45,256Z" transform="translate(-23.25 -47.8)" fill="#fff"/><path d="M172.4,243.17H131.22a.8.8,0,1,1,0-1.6H172.4a.8.8,0,1,1,0,1.6Z" transform="translate(-23.25 -47.8)" fill="#0051b6"/><path d="M172.4,249.08H131.22a.8.8,0,0,1,0-1.6H172.4a.8.8,0,1,1,0,1.6Z" transform="translate(-23.25 -47.8)" fill="#0051b6"/><path d="M172.4,254.85H131.22a.8.8,0,1,1,0-1.6H172.4a.8.8,0,1,1,0,1.6Z" transform="translate(-23.25 -47.8)" fill="#0051b6"/><path d="M172.4,260.76H131.22a.8.8,0,1,1,0-1.6H172.4a.8.8,0,0,1,0,1.6Z" transform="translate(-23.25 -47.8)" fill="#0051b6"/><path d="M168.07,199.65H128.12a.8.8,0,1,1,0-1.6h39.95a.8.8,0,0,1,0,1.6Z" transform="translate(-23.25 -47.8)" fill="#0051b6"/><path d="M168.07,205.56H128.12a.8.8,0,1,1,0-1.6h39.95a.8.8,0,0,1,0,1.6Z" transform="translate(-23.25 -47.8)" fill="#0051b6"/><path d="M168.07,211.33H128.12a.8.8,0,0,1,0-1.6h39.95a.8.8,0,0,1,0,1.6Z" transform="translate(-23.25 -47.8)" fill="#0051b6"/><path d="M168.07,217.25H128.12a.8.8,0,1,1,0-1.6h39.95a.8.8,0,0,1,0,1.6Z" transform="translate(-23.25 -47.8)" fill="#0051b6"/><circle cx="80.79" cy="160" r="18.64" fill="#1eb8ff"/><path d="M114,204.06l-3.53,6.47L98.29,203.9l3.53-6.47A6.92,6.92,0,1,1,114,204.06Z" transform="translate(-23.25 -47.8)" fill="#0051b6"/><path d="M97.65,205.06l12.14,6.63-3.53,6.47a6.92,6.92,0,1,1-12.14-6.63Z" transform="translate(-23.25 -47.8)" fill="#fff"/><path d="M168.69,158.23H127.5a.8.8,0,0,1,0-1.6h41.19a.8.8,0,1,1,0,1.6Z" transform="translate(-23.25 -47.8)" fill="#0051b6"/><path d="M168.69,164.14H127.5a.8.8,0,0,1,0-1.6h41.19a.8.8,0,0,1,0,1.6Z" transform="translate(-23.25 -47.8)" fill="#0051b6"/><path d="M168.69,169.91H127.5a.8.8,0,0,1,0-1.6h41.19a.8.8,0,1,1,0,1.6Z" transform="translate(-23.25 -47.8)" fill="#0051b6"/><path d="M168.69,175.83H127.5a.8.8,0,1,1,0-1.6h41.19a.8.8,0,0,1,0,1.6Z" transform="translate(-23.25 -47.8)" fill="#0051b6"/><circle cx="80.48" cy="118.37" r="18.64" fill="#1eb8ff"/><path d="M110,155.72H97.45a.43.43,0,0,1,0-.85H110a.43.43,0,0,1,0,.85Z" transform="translate(-23.25 -47.8)" fill="#fff"/><path d="M110,159.29H97.45a.43.43,0,0,1,0-.85H110a.43.43,0,0,1,0,.85Z" transform="translate(-23.25 -47.8)" fill="#fff"/><path d="M110,162.86H97.45a.43.43,0,0,1,0-.85H110a.43.43,0,0,1,0,.85Z" transform="translate(-23.25 -47.8)" fill="#fff"/><path d="M110,170H97.45a.43.43,0,0,1,0-.85H110a.43.43,0,0,1,0,.85Z" transform="translate(-23.25 -47.8)" fill="#fff"/><path d="M110,173.57H97.45a.43.43,0,0,1,0-.85H110a.43.43,0,0,1,0,.85Z" transform="translate(-23.25 -47.8)" fill="#fff"/><path d="M110,177.14H97.45a.43.43,0,0,1,0-.85H110a.43.43,0,0,1,0,.85Z" transform="translate(-23.25 -47.8)" fill="#fff"/><path d="M100,163.55a9.79,9.79,0,0,0-1.92.95A7.07,7.07,0,0,1,97,163.43c-3.14-3.68-2.24-9.68-2.2-9.93a.93.93,0,0,1,1.06-.77.92.92,0,0,1,.76,1.05,15.79,15.79,0,0,0-.12,2c0,1.86.31,4.61,1.9,6.47A5.49,5.49,0,0,0,100,163.55Z" transform="translate(-23.25 -47.8)" fill="#0051b6"/><path d="M112.74,177.58a.92.92,0,0,1-.91.8h-.12a.92.92,0,0,1-.8-1c0-.05.71-5.9-2.11-9.09a5.73,5.73,0,0,0-1.43-1.17,9.77,9.77,0,0,0,2-.85,9,9,0,0,1,.82.81C113.55,170.86,112.77,177.3,112.74,177.58Z" transform="translate(-23.25 -47.8)" fill="#0051b6"/><path d="M95.64,178.38a.93.93,0,0,1-.92-.8c0-.28-.81-6.72,2.56-10.54a8.32,8.32,0,0,1,6.57-2.71,6.52,6.52,0,0,0,5.24-2.09c2.6-3.05,1.79-8.4,1.78-8.46a.92.92,0,1,1,1.82-.28c0,.25,1,6.25-2.2,9.93a8.27,8.27,0,0,1-6.64,2.74,6.6,6.6,0,0,0-5.19,2.08c-2.81,3.19-2.12,9-2.11,9.09a.92.92,0,0,1-.8,1Z" transform="translate(-23.25 -47.8)" fill="#0051b6"/><rect x="391.22" y="160.23" width="23.37" height="63.93" rx="3.48" fill="#fff"/><path d="M413.79,248.4h.68V228.09h-.68a1.92,1.92,0,0,0-1.91,1.91v16.49A1.92,1.92,0,0,0,413.79,248.4Z" transform="translate(-23.25 -47.8)" fill="#9ab8de"/><circle cx="426.2" cy="259.86" r="7.84" transform="translate(-95.92 229.28) rotate(-33.35)" fill="#fd615b"/><path d="M429.9,264.37a.82.82,0,0,1-.58-.24l-7.39-7.39a.8.8,0,0,1,0-1.16.82.82,0,0,1,1.16,0l7.39,7.39a.82.82,0,0,1-.58,1.4Z" transform="translate(-23.25 -47.8)" fill="#fff"/><path d="M422.51,264.37a.82.82,0,0,1-.58-.24.8.8,0,0,1,0-1.16l7.39-7.39a.82.82,0,0,1,1.16,1.16l-7.39,7.39A.82.82,0,0,1,422.51,264.37Z" transform="translate(-23.25 -47.8)" fill="#fff"/><path d="M434.17,236H418.23a1,1,0,0,0-1,1v8.83a1,1,0,0,0,1,1h15.94a1,1,0,0,0,1-1V237A1,1,0,0,0,434.17,236ZM420,240a1.39,1.39,0,1,1,1.38-1.38A1.38,1.38,0,0,1,420,240Zm6.23,5.08a3.81,3.81,0,1,1,3.81-3.81A3.82,3.82,0,0,1,426.2,245.08Z" transform="translate(-23.25 -47.8)"/><path d="M429.9,233.61V236h-1.85v-1.18a.23.23,0,0,0-.24-.23h-3.22a.23.23,0,0,0-.24.23V236h-1.84v-2.36a.47.47,0,0,1,.47-.47h6.44A.47.47,0,0,1,429.9,233.61Z" transform="translate(-23.25 -47.8)"/><rect x="400.83" y="164.51" width="4.31" height="11.24" rx="1.93"/><rect x="402.55" y="173.14" width="0.88" height="5.27" rx="0.39"/><rect x="398.66" y="176.96" width="8.66" height="1.85" rx="0.83"/><circle cx="318.35" cy="151.05" r="8.7" fill="#1eb8ff"/><path d="M339.38,203.65a.69.69,0,0,1-.47-.18l-2.33-2.08a.71.71,0,1,1,.94-1.06l1.79,1.6,6.3-7.62a.7.7,0,0,1,1-.1.71.71,0,0,1,.09,1l-6.77,8.18a.72.72,0,0,1-.49.26Z" transform="translate(-23.25 -47.8)" fill="#fff"/><circle cx="340.18" cy="151.05" r="8.7" fill="#1eb8ff"/><path d="M361.21,203.65a.69.69,0,0,1-.47-.18l-2.34-2.08a.71.71,0,1,1,.94-1.06l1.79,1.6,6.31-7.62a.7.7,0,0,1,1-.1.71.71,0,0,1,.09,1l-6.78,8.18a.72.72,0,0,1-.49.26Z" transform="translate(-23.25 -47.8)" fill="#fff"/><circle cx="362.32" cy="151.05" r="8.7" fill="#1eb8ff"/><path d="M389.58,194.31a.7.7,0,0,1,1-.1.71.71,0,0,1,.09,1l-6.78,8.18a.72.72,0,0,1-.49.26h0a.69.69,0,0,1-.47-.18l-2.34-2.08a.72.72,0,0,1-.06-1,.71.71,0,0,1,1-.06l1.79,1.6" transform="translate(-23.25 -47.8)" fill="#fff"/><path d="M341.62,159.83c-.64,8.29-12.3,17.81-16.85,21.14a3,3,0,0,1-3.5,0c-4.56-3.33-16.21-12.85-16.85-21.14-.79-10.29,12-15.82,18.6-4.84C329.64,144,342.41,149.54,341.62,159.83Z" transform="translate(-23.25 -47.8)" fill="#fd615b"/><path d="M338.81,162.55a.37.37,0,0,1-.37.3h-3.38a.4.4,0,0,1-.37-.25l-.16-.42-.88-2.22-.7,1.77a.35.35,0,0,1-.33.23h-2.05a.37.37,0,0,1-.33-.23l-.65-1.65-2.43,6.17a.35.35,0,0,1-.33.22.36.36,0,0,1-.33-.22l-1.24-3.15-3.62,9.18a.36.36,0,0,1-.33.22.37.37,0,0,1-.33-.22l-3.89-9.86h-1.48a.35.35,0,0,1-.33-.22l-.77-2-.94,2.39a.36.36,0,0,1-.33.22h-5.65a.36.36,0,1,1,0-.71H313l1.18-3a.35.35,0,0,1,.33-.22.37.37,0,0,1,.33.22l1,2.56h1.48a.35.35,0,0,1,.33.23l3.65,9.25,3.62-9.18a.36.36,0,0,1,.33-.22.34.34,0,0,1,.33.22l1.24,3.14,2.43-6.16a.37.37,0,0,1,.33-.22.35.35,0,0,1,.33.22l.89,2.26h1.57l.94-2.38a.36.36,0,0,1,.66,0l1.29,3.27h3.19A.35.35,0,0,1,338.81,162.55Z" transform="translate(-23.25 -47.8)" fill="#f0ece6"/><path d="M393.4,155.34H352.21a.8.8,0,1,1,0-1.6H393.4a.8.8,0,1,1,0,1.6Z" transform="translate(-23.25 -47.8)" fill="#0051b6"/><path d="M393.4,161.26H352.21a.8.8,0,0,1,0-1.6H393.4a.8.8,0,1,1,0,1.6Z" transform="translate(-23.25 -47.8)" fill="#0051b6"/><path d="M393.4,167H352.21a.8.8,0,0,1,0-1.6H393.4a.8.8,0,1,1,0,1.6Z" transform="translate(-23.25 -47.8)" fill="#0051b6"/><path d="M393.4,172.94H352.21a.8.8,0,0,1,0-1.6H393.4a.8.8,0,1,1,0,1.6Z" transform="translate(-23.25 -47.8)" fill="#0051b6"/><path d="M420,176.86a.61.61,0,0,1-.42-.26l-3.15-4.38s0,0-.06,0l-2.65,1.9a.64.64,0,0,1-1-.44l-1.59-11.15a.67.67,0,0,1,.26-.62.65.65,0,0,1,.67-.05l10.07,5.07a.63.63,0,0,1,.35.52.61.61,0,0,1-.27.57l-2.64,1.9,0,0a0,0,0,0,0,0,0l3.15,4.39a.66.66,0,0,1-.14.9l-2.08,1.49a.67.67,0,0,1-.43.12Z" transform="translate(-23.25 -47.8)" fill="#fff"/><g opacity="0.5"><path d="M402.74,409.47c6.21-10.76,25.05-11.51,42.09-1.67s25.8,26.52,19.59,37.28-25.06,11.51-42.09,1.68S396.53,420.23,402.74,409.47Z" transform="translate(-23.25 -47.8)" fill="#9ab8de"/></g><path d="M464.06,435.33h0a4.33,4.33,0,0,1-.55,1.42h0c-6.45,10.45-40.86,4.48-44.7-4.75-.33-.8-.66-1.54-1-2.23-4.78-10.26-7.81-7.4-16.19-14.36a8,8,0,0,1-1-.93l-.11-.12c-4.72-5.38,1.09-12.23,1.09-12.23.35-.28.7-.55,1.06-.81h0a27.2,27.2,0,0,1,8.67-4.23,25.14,25.14,0,0,1,4.1-.79C440,393.51,466.31,424.71,464.06,435.33Z" transform="translate(-23.25 -47.8)" fill="#fff"/><path d="M463.49,436.76c-6.94,12.8-40.86,4.48-44.7-4.75-.33-.8-.66-1.54-1-2.23-4.81-10.22-8.07-7.11-16.19-14.36-.36-.31-.68-.62-1-.93l-.11-.12c-4.72-5.38,1.09-12.23,1.09-12.23.35-.28.7-.55,1.06-.81-.69,2-1.34,6.47,4.1,10.83a18.63,18.63,0,0,0,4.24,2.46c1.19.51,3.58,2.33,7.85,8.28,6.84,9.52,13.81,14.1,21.72,14.9C454.85,439.24,463.12,437,463.49,436.76Z" transform="translate(-23.25 -47.8)" fill="#9ab8de"/><path d="M426.39,404.65c-8.78-7.28-15-7.56-15-7.56a25.14,25.14,0,0,1,4.1-.79A22,22,0,0,1,426.39,404.65Z" transform="translate(-23.25 -47.8)" fill="#9ab8de"/><g opacity="0.5"><path d="M64.13,464.83H417.27a3.32,3.32,0,0,0,2.81-5.09l-44-69.91a3.34,3.34,0,0,0-2.81-1.55H108.16a3.31,3.31,0,0,0-2.8,1.55l-44,69.91A3.32,3.32,0,0,0,64.13,464.83Z" transform="translate(-23.25 -47.8)" fill="#9ab8de"/></g><polygon points="47.12 393.42 388.59 393.42 355.34 340.48 80.38 340.48 47.12 393.42" fill="#fff"/><path d="M81.09,441.22h320a10.72,10.72,0,0,1,10.72,10.72v1.27a0,0,0,0,1,0,0H70.37a0,0,0,0,1,0,0v-1.27A10.72,10.72,0,0,1,81.09,441.22Z" transform="translate(458.96 846.62) rotate(180)" fill="#9ab8de"/><path d="M361.05,397.63h15a1,1,0,0,0,.92-1.44l-1.59-3.4a1,1,0,0,0-.91-.59H359.81a1,1,0,0,0-.95,1.36l1.24,3.4A1,1,0,0,0,361.05,397.63Z" transform="translate(-23.25 -47.8)" fill="#9ab8de"/><path d="M357.55,396.24l-1.37-3.4a1,1,0,0,0-.94-.64H340.58a1,1,0,0,0-1,1.31l1,3.4a1,1,0,0,0,1,.72h15A1,1,0,0,0,357.55,396.24Z" transform="translate(-23.25 -47.8)" fill="#9ab8de"/><path d="M338.17,396.29l-1.15-3.4a1,1,0,0,0-1-.69h-14.7a1,1,0,0,0-1,1.25l.81,3.4a1,1,0,0,0,1,.78h15A1,1,0,0,0,338.17,396.29Z" transform="translate(-23.25 -47.8)" fill="#9ab8de"/><path d="M318.72,396.35l-.94-3.4a1,1,0,0,0-1-.75H302.07a1,1,0,0,0-1,1.19l.59,3.4a1,1,0,0,0,1,.84h15.08A1,1,0,0,0,318.72,396.35Z" transform="translate(-23.25 -47.8)" fill="#9ab8de"/><path d="M299.28,396.32l-.69-3.26a1.07,1.07,0,0,0-1-.86H282.91a1.08,1.08,0,0,0-1.07,1.2l.35,3.26a1.09,1.09,0,0,0,1.08,1h15A1.08,1.08,0,0,0,299.28,396.32Z" transform="translate(-23.25 -47.8)" fill="#9ab8de"/><path d="M279.86,396.39l-.48-3.26a1.08,1.08,0,0,0-1.07-.93H263.67a1.09,1.09,0,0,0-1.08,1.13l.15,3.27a1.09,1.09,0,0,0,1.08,1h15A1.08,1.08,0,0,0,279.86,396.39Z" transform="translate(-23.25 -47.8)" fill="#9ab8de"/><path d="M260.5,396.65l-.3-3.61a.91.91,0,0,0-.9-.84h-15a.91.91,0,0,0-.91.89l-.07,3.62a.91.91,0,0,0,.91.92H259.6A.9.9,0,0,0,260.5,396.65Z" transform="translate(-23.25 -47.8)" fill="#9ab8de"/><path d="M241.23,396.71l-.07-3.62a.91.91,0,0,0-.91-.89h-15a.91.91,0,0,0-.9.84l-.3,3.61a.9.9,0,0,0,.9,1h15.35A.91.91,0,0,0,241.23,396.71Z" transform="translate(-23.25 -47.8)" fill="#9ab8de"/><path d="M221.82,396.76l.17-3.61a.91.91,0,0,0-.91-.95h-15a.91.91,0,0,0-.9.78l-.53,3.61a.91.91,0,0,0,.9,1h15.34A.9.9,0,0,0,221.82,396.76Z" transform="translate(-23.25 -47.8)" fill="#9ab8de"/><path d="M202.36,396.82l.4-3.61a.92.92,0,0,0-.91-1h-15a.89.89,0,0,0-.88.72l-.76,3.62a.9.9,0,0,0,.88,1.09h15.33A.91.91,0,0,0,202.36,396.82Z" transform="translate(-23.25 -47.8)" fill="#9ab8de"/><path d="M182.89,396.88l.63-3.62a.91.91,0,0,0-.9-1.06H167.68a.92.92,0,0,0-.87.67l-1,3.61a.9.9,0,0,0,.87,1.15H182A.9.9,0,0,0,182.89,396.88Z" transform="translate(-23.25 -47.8)" fill="#9ab8de"/><path d="M163.37,397l.86-3.65a.89.89,0,0,0-.86-1.1h-15a.89.89,0,0,0-.84.61l-1.23,3.65a.88.88,0,0,0,.84,1.17h15.32A.89.89,0,0,0,163.37,397Z" transform="translate(-23.25 -47.8)" fill="#9ab8de"/><path d="M143.91,397l1.1-3.65a.9.9,0,0,0-.85-1.15H129.24a.88.88,0,0,0-.82.56L127,396.41a.89.89,0,0,0,.82,1.22h15.29A.9.9,0,0,0,143.91,397Z" transform="translate(-23.25 -47.8)" fill="#9ab8de"/><path d="M123.61,397.63H108.36a.88.88,0,0,1-.8-1.26l1.7-3.65a.89.89,0,0,1,.81-.52h14.87a.89.89,0,0,1,.83,1.2l-1.33,3.65A.88.88,0,0,1,123.61,397.63Z" transform="translate(-23.25 -47.8)" fill="#9ab8de"/><path d="M364.64,407.77h15.59a1,1,0,0,0,.92-1.44l-1.68-3.6a1,1,0,0,0-.92-.59H363.32a1,1,0,0,0-.95,1.36l1.31,3.6A1,1,0,0,0,364.64,407.77Z" transform="translate(-23.25 -47.8)" fill="#9ab8de"/><path d="M361.05,406.38l-1.45-3.6a1,1,0,0,0-.94-.64H343.39a1,1,0,0,0-1,1.31l1.08,3.6a1,1,0,0,0,1,.72h15.64A1,1,0,0,0,361.05,406.38Z" transform="translate(-23.25 -47.8)" fill="#9ab8de"/><path d="M341,406.43l-1.22-3.6a1,1,0,0,0-1-.69H323.46a1,1,0,0,0-1,1.25l.86,3.6a1,1,0,0,0,1,.78H340A1,1,0,0,0,341,406.43Z" transform="translate(-23.25 -47.8)" fill="#9ab8de"/><path d="M320.78,406.49l-1-3.6a1,1,0,0,0-1-.75H303.47a1,1,0,0,0-1,1.19l.63,3.6a1,1,0,0,0,1,.84H319.8A1,1,0,0,0,320.78,406.49Z" transform="translate(-23.25 -47.8)" fill="#9ab8de"/><path d="M300.63,406.47,299.9,403a1.09,1.09,0,0,0-1.06-.86H283.6a1.08,1.08,0,0,0-1.07,1.2l.38,3.47a1.08,1.08,0,0,0,1.07,1h15.59A1.08,1.08,0,0,0,300.63,406.47Z" transform="translate(-23.25 -47.8)" fill="#9ab8de"/><path d="M280.49,406.53l-.5-3.46a1.1,1.1,0,0,0-1.08-.93H263.66a1.08,1.08,0,0,0-1.08,1.14l.16,3.46a1.07,1.07,0,0,0,1.08,1h15.6A1.08,1.08,0,0,0,280.49,406.53Z" transform="translate(-23.25 -47.8)" fill="#9ab8de"/><path d="M260.42,406.79,260.1,403a.91.91,0,0,0-.9-.84H243.6a.92.92,0,0,0-.91.89l-.07,3.82a.91.91,0,0,0,.91.92h16A.91.91,0,0,0,260.42,406.79Z" transform="translate(-23.25 -47.8)" fill="#9ab8de"/><path d="M240.43,406.85l-.07-3.82a.91.91,0,0,0-.91-.89H223.86a.91.91,0,0,0-.91.84l-.31,3.81a.9.9,0,0,0,.9,1h16A.91.91,0,0,0,240.43,406.85Z" transform="translate(-23.25 -47.8)" fill="#9ab8de"/><path d="M220.31,406.9l.17-3.81a.9.9,0,0,0-.9-.95H204a.91.91,0,0,0-.9.78l-.56,3.81a.91.91,0,0,0,.9,1h16A.9.9,0,0,0,220.31,406.9Z" transform="translate(-23.25 -47.8)" fill="#9ab8de"/><path d="M200.13,407l.42-3.81a.91.91,0,0,0-.9-1H184.07a.92.92,0,0,0-.89.72l-.8,3.82a.9.9,0,0,0,.89,1.09h16A.91.91,0,0,0,200.13,407Z" transform="translate(-23.25 -47.8)" fill="#9ab8de"/><path d="M179.94,407l.66-3.81a.91.91,0,0,0-.89-1.07H164.16a.92.92,0,0,0-.88.67l-1,3.81a.9.9,0,0,0,.87,1.15h15.94A.9.9,0,0,0,179.94,407Z" transform="translate(-23.25 -47.8)" fill="#9ab8de"/><path d="M159.7,407.09l.92-3.85a.89.89,0,0,0-.87-1.1H144.19a.89.89,0,0,0-.84.61l-1.3,3.85a.88.88,0,0,0,.84,1.17h16A.88.88,0,0,0,159.7,407.09Z" transform="translate(-23.25 -47.8)" fill="#9ab8de"/><path d="M139.52,407.14l1.16-3.85a.89.89,0,0,0-.85-1.15H124.31a.89.89,0,0,0-.83.56l-1.55,3.85a.89.89,0,0,0,.83,1.22h15.92A.88.88,0,0,0,139.52,407.14Z" transform="translate(-23.25 -47.8)" fill="#9ab8de"/><path d="M118.51,407.77H102.63a.88.88,0,0,1-.8-1.26l1.79-3.85a.89.89,0,0,1,.81-.52h15.48a.9.9,0,0,1,.84,1.2l-1.41,3.85A.88.88,0,0,1,118.51,407.77Z" transform="translate(-23.25 -47.8)" fill="#9ab8de"/><path d="M367.85,417.73H384a1,1,0,0,0,.91-1.44l-1.75-3.77a1,1,0,0,0-.92-.58H366.47a1,1,0,0,0-1,1.36l1.38,3.77A1,1,0,0,0,367.85,417.73Z" transform="translate(-23.25 -47.8)" fill="#9ab8de"/><path d="M364.19,416.34l-1.51-3.77a1,1,0,0,0-.94-.63h-15.8a1,1,0,0,0-1,1.3l1.14,3.77a1,1,0,0,0,1,.72h16.17A1,1,0,0,0,364.19,416.34Z" transform="translate(-23.25 -47.8)" fill="#9ab8de"/><path d="M343.49,416.39l-1.28-3.76a1,1,0,0,0-1-.69H325.42a1,1,0,0,0-1,1.24l.89,3.77a1,1,0,0,0,1,.78h16.22A1,1,0,0,0,343.49,416.39Z" transform="translate(-23.25 -47.8)" fill="#9ab8de"/><path d="M322.71,416.45l-1-3.77a1,1,0,0,0-1-.74H304.83a1,1,0,0,0-1,1.18l.65,3.77a1,1,0,0,0,1,.84h16.24A1,1,0,0,0,322.71,416.45Z" transform="translate(-23.25 -47.8)" fill="#9ab8de"/><path d="M302,416.43l-.76-3.63a1.09,1.09,0,0,0-1.06-.86H284.37a1.08,1.08,0,0,0-1.07,1.2l.39,3.63a1.08,1.08,0,0,0,1.08,1h16.12A1.08,1.08,0,0,0,302,416.43Z" transform="translate(-23.25 -47.8)" fill="#9ab8de"/><path d="M281.21,416.49l-.53-3.63a1.09,1.09,0,0,0-1.07-.92H263.83a1.08,1.08,0,0,0-1.08,1.13l.17,3.63a1.07,1.07,0,0,0,1.08,1h16.14A1.08,1.08,0,0,0,281.21,416.49Z" transform="translate(-23.25 -47.8)" fill="#9ab8de"/><path d="M260.53,416.75l-.33-4a.9.9,0,0,0-.9-.83H243.18a.91.91,0,0,0-.91.89l-.07,4a.9.9,0,0,0,.91.92h16.52A.9.9,0,0,0,260.53,416.75Z" transform="translate(-23.25 -47.8)" fill="#9ab8de"/><path d="M239.94,416.81l-.07-4a.9.9,0,0,0-.91-.89H222.85a.91.91,0,0,0-.91.83l-.33,4a.91.91,0,0,0,.91,1H239A.9.9,0,0,0,239.94,416.81Z" transform="translate(-23.25 -47.8)" fill="#9ab8de"/><path d="M219.22,416.87l.18-4a.91.91,0,0,0-.91-.95H202.38a.9.9,0,0,0-.89.77l-.59,4a.91.91,0,0,0,.9,1h16.51A.9.9,0,0,0,219.22,416.87Z" transform="translate(-23.25 -47.8)" fill="#9ab8de"/><path d="M198.43,416.92l.44-4a.9.9,0,0,0-.9-1h-16.1a.91.91,0,0,0-.89.72l-.83,4a.9.9,0,0,0,.88,1.09h16.5A.91.91,0,0,0,198.43,416.92Z" transform="translate(-23.25 -47.8)" fill="#9ab8de"/><path d="M177.64,417l.69-4a.91.91,0,0,0-.9-1.06H161.36a.9.9,0,0,0-.87.66l-1.09,4a.9.9,0,0,0,.87,1.14h16.48A.91.91,0,0,0,177.64,417Z" transform="translate(-23.25 -47.8)" fill="#9ab8de"/><path d="M156.79,417.05l1-4a.88.88,0,0,0-.86-1.09H140.8a.88.88,0,0,0-.84.6l-1.36,4a.88.88,0,0,0,.84,1.17h16.49A.88.88,0,0,0,156.79,417.05Z" transform="translate(-23.25 -47.8)" fill="#9ab8de"/><path d="M136,417.1l1.21-4a.89.89,0,0,0-.85-1.14H120.32a.88.88,0,0,0-.82.55l-1.62,4a.88.88,0,0,0,.82,1.22h16.46A.9.9,0,0,0,136,417.1Z" transform="translate(-23.25 -47.8)" fill="#9ab8de"/><path d="M114.38,417.73H98a.89.89,0,0,1-.81-1.26l1.88-4a.88.88,0,0,1,.8-.51h16a.88.88,0,0,1,.83,1.19l-1.46,4A.89.89,0,0,1,114.38,417.73Z" transform="translate(-23.25 -47.8)" fill="#9ab8de"/><path d="M372.32,427.89h16.77a1,1,0,0,0,.92-1.44l-1.85-4a1,1,0,0,0-.92-.58H370.87a1,1,0,0,0-.95,1.36l1.45,4A1,1,0,0,0,372.32,427.89Z" transform="translate(-23.25 -47.8)" fill="#9ab8de"/><path d="M368.58,426.5l-1.59-4a1,1,0,0,0-.94-.63H349.63a1,1,0,0,0-1,1.3l1.2,4a1,1,0,0,0,1,.72h16.81A1,1,0,0,0,368.58,426.5Z" transform="translate(-23.25 -47.8)" fill="#9ab8de"/><path d="M347.15,426.56l-1.34-4a1,1,0,0,0-1-.69H328.4a1,1,0,0,0-1,1.25l.94,4a1,1,0,0,0,1,.77h16.85A1,1,0,0,0,347.15,426.56Z" transform="translate(-23.25 -47.8)" fill="#9ab8de"/><path d="M325.65,426.61l-1.09-4a1,1,0,0,0-1-.74H307.09a1,1,0,0,0-1,1.18l.68,4a1,1,0,0,0,1,.83h16.89A1,1,0,0,0,325.65,426.61Z" transform="translate(-23.25 -47.8)" fill="#9ab8de"/><path d="M304.16,426.59l-.8-3.83a1.09,1.09,0,0,0-1.06-.86H285.92a1.08,1.08,0,0,0-1.07,1.2l.42,3.83a1.07,1.07,0,0,0,1.07,1H303.1A1.07,1.07,0,0,0,304.16,426.59Z" transform="translate(-23.25 -47.8)" fill="#9ab8de"/><path d="M200.18,422.83a1.07,1.07,0,0,1,1.07-.93h79.82a1.09,1.09,0,0,1,1.07.93l.56,3.83a1.08,1.08,0,0,1-1.07,1.23H200.69a1.07,1.07,0,0,1-1.07-1.23Z" transform="translate(-23.25 -47.8)" fill="#9ab8de"/><path d="M197,427.1l.46-4.22a.88.88,0,0,0-.88-1H179.86a.88.88,0,0,0-.87.7l-.89,4.22a.88.88,0,0,0,.87,1.07h17.18A.89.89,0,0,0,197,427.1Z" transform="translate(-23.25 -47.8)" fill="#9ab8de"/><path d="M175.51,427.16l.73-4.22a.88.88,0,0,0-.87-1H158.64a.9.9,0,0,0-.86.65l-1.16,4.22a.89.89,0,0,0,.86,1.12h17.16A.88.88,0,0,0,175.51,427.16Z" transform="translate(-23.25 -47.8)" fill="#9ab8de"/><path d="M153.94,427.21l1-4.22a.88.88,0,0,0-.86-1.09H137.37a.88.88,0,0,0-.84.6l-1.43,4.22a.89.89,0,0,0,.85,1.17h17.12A.89.89,0,0,0,153.94,427.21Z" transform="translate(-23.25 -47.8)" fill="#9ab8de"/><path d="M132.43,427.26,133.7,423a.88.88,0,0,0-.85-1.14H116.18a.88.88,0,0,0-.82.56l-1.7,4.22a.89.89,0,0,0,.82,1.21h17.1A.88.88,0,0,0,132.43,427.26Z" transform="translate(-23.25 -47.8)" fill="#9ab8de"/><path d="M110.08,427.89H93a.89.89,0,0,1-.81-1.26l2-4.22a.89.89,0,0,1,.8-.51h16.63a.89.89,0,0,1,.84,1.19l-1.54,4.22A.9.9,0,0,1,110.08,427.89Z" transform="translate(-23.25 -47.8)" fill="#9ab8de"/></g></svg>